<svg width="20" height="20" viewBox="0 0 20 20" fill="none" xmlns="http://www.w3.org/2000/svg">
    <path d="M4.99992 14.1667C4.07944 14.1667 3.33325 14.9129 3.33325 15.8333C3.33325 16.7538 4.07944 17.5 4.99992 17.5C5.92039 17.5 6.66659 16.7538 6.66659 15.8333C6.66659 14.9129 5.92039 14.1667 4.99992 14.1667ZM4.99992 14.1667H14.1666M4.99992 14.1667V2.5H3.33325M14.1666 14.1667C13.2461 14.1667 12.4999 14.9129 12.4999 15.8333C12.4999 16.7538 13.2461 17.5 14.1666 17.5C15.0871 17.5 15.8333 16.7538 15.8333 15.8333C15.8333 14.9129 15.0871 14.1667 14.1666 14.1667ZM4.99992 4.16667L10.0041 4.52417M15.9524 10.0017L15.8333 10.8333H4.99992M12.4999 5H17.4999M14.9999 2.5V7.5" stroke="white" stroke-width="1.5" stroke-linecap="round" stroke-linejoin="round"/>
</svg>
