<svg width="24" height="24" viewBox="0 0 24 24" fill="none" xmlns="http://www.w3.org/2000/svg">
    <path d="M20.4753 7.20484C20.1319 6.62283 19.638 6.13988 19.0435 5.80467L13.9565 2.91737C13.3624 2.57852 12.6873 2.40002 12 2.40002C11.3127 2.40002 10.6376 2.57852 10.0435 2.91737L4.95652 5.80467C4.36189 6.13973 3.8679 6.62264 3.52439 7.20469C3.18088 7.78673 3 8.44732 3 9.1198V14.8906C3.00064 15.5622 3.18184 16.2217 3.52534 16.8027C3.86884 17.3837 4.36249 17.8657 4.95652 18.1999L10.0611 21.0892C10.6535 21.4239 11.3251 21.6 12.0088 21.6C12.6925 21.6 13.3641 21.4239 13.9565 21.0892L19.0435 18.1999C19.6374 17.8655 20.1309 17.3836 20.4744 16.8026C20.8179 16.2216 20.9992 15.5621 21 14.8906V9.1198C20.9998 8.44736 20.8188 7.78685 20.4753 7.20484Z" stroke="#D60F86" stroke-width="1.5"/>
    <mask id="path-2-inside-1_497_44176" fill="white">
        <rect x="9.6001" y="9.59998" width="4.8" height="4.8" rx="0.5"/>
    </mask>
    <rect x="9.6001" y="9.59998" width="4.8" height="4.8" rx="0.5" stroke="#D60F86" stroke-width="3" mask="url(#path-2-inside-1_497_44176)"/>
</svg>
