<svg width="24" height="24" viewBox="0 0 24 24" fill="none" xmlns="http://www.w3.org/2000/svg">
    <g transform="translate(2, 2)">
        <path d="M13.3333 4.99967C13.3333 5.92015 12.5871 6.66634 11.6666 6.66634C10.7461 6.66634 9.99992 5.92015 9.99992 4.99967M13.3333 4.99967C13.3333 4.0792 12.5871 3.33301 11.6666 3.33301C10.7461 3.33301 9.99992 4.0792 9.99992 4.99967M13.3333 4.99967H16.6666M9.99992 4.99967H3.33325M8.33325 9.99967C8.33325 10.9201 7.58706 11.6663 6.66659 11.6663C5.74611 11.6663 4.99992 10.9201 4.99992 9.99967M8.33325 9.99967C8.33325 9.0792 7.58706 8.33301 6.66659 8.33301C5.74611 8.33301 4.99992 9.0792 4.99992 9.99967M8.33325 9.99967H16.6666M4.99992 9.99967H3.33325M15.8333 14.9997C15.8333 15.9201 15.0871 16.6663 14.1666 16.6663C13.2461 16.6663 12.4999 15.9201 12.4999 14.9997M15.8333 14.9997C15.8333 14.0792 15.0871 13.333 14.1666 13.333C13.2461 13.333 12.4999 14.0792 12.4999 14.9997M15.8333 14.9997H16.6666M12.4999 14.9997H3.33325" stroke="#B5B5B5" stroke-width="1.5" stroke-linecap="round" stroke-linejoin="round"/>
    </g>
</svg>
