<svg width="24" height="24" viewBox="0 0 24 24" fill="none" xmlns="http://www.w3.org/2000/svg">
    <g transform="translate(2, 2)">
        <path d="M17.5 17.5L12.5 12.5M8.33333 10.8333V10.8417M8.33342 8.33333C8.54318 8.33344 8.74958 8.28076 8.93363 8.18015C9.11768 8.07954 9.27345 7.93423 9.38659 7.75761C9.49974 7.581 9.56662 7.37874 9.58108 7.16949C9.59554 6.96024 9.55711 6.75071 9.46932 6.56021C9.38154 6.36971 9.24723 6.20436 9.07877 6.07939C8.91031 5.95443 8.71311 5.87387 8.50533 5.84512C8.29756 5.81638 8.08589 5.84039 7.88983 5.91493C7.69377 5.98947 7.51962 6.11215 7.38342 6.27167M14.1667 8.33333C14.1667 11.555 11.555 14.1667 8.33333 14.1667C5.11167 14.1667 2.5 11.555 2.5 8.33333C2.5 5.11167 5.11167 2.5 8.33333 2.5C11.555 2.5 14.1667 5.11167 14.1667 8.33333Z" stroke="#42A58D" stroke-width="1.6" stroke-linecap="round" stroke-linejoin="round"/>
    </g>
</svg>
