<svg width="52" height="40" viewBox="0 0 52 40" fill="none" xmlns="http://www.w3.org/2000/svg">
<path d="M51.8493 9.54721C51.1962 8.13565 48.9377 8.20342 47.2956 8.37722C45.7543 8.54036 43.4578 8.99731 41.1541 9.59785C41.0522 9.0781 40.9364 8.56188 40.8105 8.03853C40.3326 6.09837 39.5116 4.20049 38.3703 2.57176C38.0693 2.12882 37.5137 1.44691 37.17 1.0172C37.0537 0.872053 36.9378 0.726729 36.824 0.580098C36.7236 0.455192 36.5833 0.252315 36.4495 0.162292C36.1392 -0.0621918 35.6771 -0.0532949 35.3794 0.185874C35.6769 -0.0492799 36.1367 -0.0523917 36.4331 0.18254C36.5614 0.267545 36.6908 0.496911 36.7759 0.61223C36.8811 0.764561 36.9837 0.918604 37.0851 1.07341C37.2884 1.38164 37.4878 1.69411 37.6742 2.01158C38.2218 2.95463 38.5954 3.99232 38.7923 5.0473C39.0628 6.45125 39.0302 7.87896 38.9403 9.29595C38.934 9.41124 38.9251 9.58621 38.915 9.78104C36.57 7.59681 33.6181 6.00476 30.3237 5.25772C30.3431 5.21359 30.3638 5.17018 30.3853 5.12834C30.5596 4.78409 30.8153 4.46684 31.0606 4.1646C32.3324 2.68531 33.8288 1.39295 35.3794 0.185874C34.6766 0.731908 33.9564 1.26476 33.2234 1.77564C32.7294 2.13971 32.2299 2.49299 31.7263 2.84665C31.0971 3.29602 30.4554 3.72259 29.8744 4.24244C29.6072 4.48839 29.3675 4.7304 29.1817 5.03515C28.1648 4.86893 27.1194 4.78205 26.0528 4.78205C23.4933 4.78205 21.0557 5.28082 18.8404 6.18191C18.6956 6.08439 18.5431 5.99594 18.3837 5.90816C17.6877 5.53791 16.9572 5.27442 16.233 4.98261C15.6548 4.75602 15.0806 4.52898 14.5091 4.29002C13.6685 3.96391 12.8345 3.61374 12.0142 3.24668C13.8247 4.05889 15.6041 4.96637 17.213 6.10719C17.4281 6.26796 17.6486 6.4357 17.8487 6.61896C14.9797 7.98414 12.5358 10.043 10.7573 12.5658C10.3583 11.3225 10.0211 10.0575 9.9355 8.75329C9.85902 7.68416 9.95845 6.59088 10.2506 5.54919C10.3509 5.19804 10.4652 4.84869 10.5844 4.5026C10.6434 4.32894 10.7039 4.15574 10.7674 3.9836C10.8222 3.83925 10.8891 3.60555 10.991 3.48734C11.2188 3.1899 11.6662 3.08822 12.0142 3.24668C11.6646 3.08292 11.2143 3.18245 10.97 3.47149C10.8627 3.58199 10.7755 3.83402 10.7126 3.96353C10.6393 4.13215 10.5638 4.29997 10.4877 4.4677C10.2678 4.95883 9.89499 5.75383 9.71728 6.25382C9.02292 8.09837 8.70755 10.1295 8.73578 12.1226C8.7536 13.0291 8.79289 13.9091 8.889 14.8081C8.92299 15.0809 8.9644 15.357 9.03327 15.6264C8.12552 17.7091 7.624 19.9941 7.624 22.391C7.624 22.763 7.63668 23.1322 7.66047 23.4984C5.47921 24.7977 3.69514 26.0101 2.43691 27.0516C1.13746 28.1273 -0.513117 29.7236 0.152599 31.1623C0.742588 32.4372 2.6756 32.4502 3.55824 32.4159C3.63742 32.4129 3.70827 32.4094 3.7688 32.4064C5.29634 32.3318 7.34061 31.9765 9.84486 31.3502C9.94227 31.3259 10.0405 31.3009 10.139 31.2758C10.1524 31.2977 10.1654 31.3198 10.1789 31.3417C11.2065 31.123 12.0452 30.8864 13.4035 30.4871C13.9312 30.3319 14.8778 30.1456 17.4408 29.0749C18.6866 28.5544 20.3143 27.825 22.4616 26.7886C24.1241 25.9861 25.6861 25.129 27.0877 24.36C27.7108 23.8983 28.3958 23.2801 29.0116 22.4726C29.3342 22.0496 29.6379 21.5746 29.9036 21.043C30.0171 20.816 31.425 17.8921 30.4921 14.5165C30.3965 14.1706 30.3054 13.9202 30.2558 13.7885C30.3645 13.9714 30.5258 14.2305 30.7387 14.5294C31.1372 15.0889 32.6025 17.0973 35.099 18.2061C35.6984 18.4724 36.2959 18.6594 36.877 18.7861L37.3721 18.7867C37.3087 18.8189 37.2455 18.851 37.1818 18.8832C38.7782 19.2313 40.2497 19.1233 41.2917 18.9441C41.4502 18.8579 41.6071 18.7719 41.763 18.6861C42.0086 18.6262 42.2028 18.5702 42.3344 18.5303C42.1139 18.6319 41.8013 18.7861 41.4441 19.0003C40.8811 19.3378 38.8239 20.6532 37.7134 23.139C36.2777 26.3524 37.4025 29.3314 37.6553 29.9573C37.5592 29.7943 37.4148 29.56 37.2238 29.2883C36.7583 28.6259 34.9435 26.0435 31.5307 25.1485C30.837 24.9666 30.1654 24.8702 29.5373 24.8319C26.7047 26.7229 25.1614 28.9905 23.8257 30.4006C22.7136 31.5746 20.5252 34.4151 18.7145 38.5484C20.9632 39.4821 23.4447 40 26.0528 40C36.2308 40 44.4817 32.1162 44.4817 22.391C44.4817 20.7106 44.2346 19.0854 43.7745 17.546C43.8527 17.5003 43.9307 17.4547 44.0081 17.4091C44.5145 17.1108 45.0035 16.8156 45.4725 16.5241C47.6425 15.1755 49.2933 13.9697 50.379 12.9403C50.9017 12.4447 52.4923 10.9366 51.8493 9.54721ZM17.1746 25.2209C17.1406 25.1444 17.089 25.034 17.0188 24.905C16.8476 24.5905 16.1802 23.3642 14.7196 22.8073C13.696 22.4171 12.7352 22.4859 12.2876 22.5751L11.9599 22.6297C12.3079 22.5137 13.4517 22.0859 14.214 20.9173C14.2759 20.8225 15.0493 19.598 14.8125 18.0633C14.7882 17.906 14.761 17.7911 14.7459 17.7306C14.7844 17.8165 14.8422 17.9386 14.9207 18.0806C15.0676 18.3466 15.6105 19.3028 16.6554 19.9107C18.0098 20.6987 19.461 20.4668 19.8336 20.3966C19.7309 20.431 19.5849 20.4843 19.4161 20.5619C19.15 20.6843 18.1733 21.1677 17.5539 22.2128C16.7533 23.5638 17.0955 24.9325 17.1746 25.2209ZM2.06974 30.3521C2.17757 30.1017 2.59149 29.4331 4.16886 28.194C5.14851 27.4244 6.42597 26.5551 7.93515 25.6284C8.19848 26.9823 8.62395 28.2818 9.19157 29.5078C4.07039 30.7777 2.47076 30.4905 2.06974 30.3521ZM43.7083 15.3003C43.5734 15.3819 43.4367 15.4639 43.2987 15.5461C43.2291 15.5876 43.1588 15.6292 43.0885 15.6708L42.9939 15.4491C42.5194 14.3932 41.9397 13.3909 41.2679 12.4535C41.3082 12.3413 41.3398 12.2231 41.3617 12.099C41.3964 11.9113 41.41 11.7218 41.4102 11.5322C43.4679 10.9868 45.5852 10.5544 47.0085 10.3667C48.912 10.1156 49.6728 10.2671 49.932 10.357C49.7603 10.7547 48.818 12.2084 43.7083 15.3003Z" fill="url(#paint0_radial_3_32329)"/>
<path d="M35.3794 0.185873C35.6771 -0.0532947 36.1391 -0.0621916 36.4494 0.162292C36.5832 0.252314 36.7235 0.455191 36.8239 0.580099C36.9378 0.726729 37.0537 0.872052 37.1699 1.01719C37.5137 1.44691 38.0693 2.12882 38.3703 2.57176C39.5116 4.20049 40.3326 6.09837 40.8105 8.03853C41.023 8.92208 41.208 9.7851 41.3427 10.6796C41.4046 11.1466 41.4487 11.6284 41.3617 12.099C41.1867 13.0898 40.3988 13.7019 39.4022 13.9143C38.37 14.1237 37.3861 13.9441 36.4153 13.6678C33.807 12.843 31.4812 11.2454 29.9034 9.08877C29.1507 8.0148 28.48 6.56418 29.0555 5.27049C29.2519 4.84816 29.5419 4.54845 29.8744 4.24245C30.4553 3.72259 31.0971 3.29602 31.7263 2.84665C32.2299 2.49299 32.7294 2.13971 33.2233 1.77564C33.9563 1.26476 34.6765 0.731906 35.3794 0.185873ZM35.3794 0.185873C33.8287 1.39295 32.3324 2.68531 31.0606 4.1646C30.8153 4.46684 30.5596 4.78409 30.3852 5.12834C30.2952 5.30403 30.2168 5.50652 30.2033 5.68C30.1948 5.91839 30.2542 6.14435 30.3558 6.36605C31.2486 8.26543 35.8187 10.5345 37.9095 11.0678C38.2066 11.1477 38.5819 11.2133 38.8655 11.2122C38.9232 11.2124 38.9335 11.2112 38.9012 11.2468C38.894 11.2586 38.88 11.2659 38.8739 11.2792C38.8111 11.3367 38.7551 11.4085 38.7254 11.4866C38.7159 11.5199 38.7157 11.522 38.7168 11.5338C38.7172 11.5357 38.7179 11.5407 38.7187 11.5402C38.7215 11.5364 38.7248 11.5339 38.7292 11.5309C38.7326 11.5316 38.7351 11.52 38.7383 11.5129L38.7485 11.4892C38.7524 11.483 38.7558 11.4703 38.7591 11.4577L38.7697 11.4209C38.8124 11.251 38.8303 11.0702 38.8471 10.8921C38.8782 10.556 38.9209 9.64815 38.9403 9.29595C39.0301 7.87896 39.0628 6.45125 38.7923 5.04729C38.5954 3.99232 38.2218 2.95463 37.6742 2.01158C37.4878 1.69411 37.2884 1.38164 37.085 1.07341C36.9837 0.918603 36.8811 0.76456 36.7759 0.612229C36.6908 0.496911 36.5614 0.267544 36.4331 0.18254C36.1367 -0.0523935 35.6769 -0.0492797 35.3794 0.185873Z" fill="#FFB709"/>
<path d="M12.0142 3.24669C11.6662 3.08823 11.2189 3.1899 10.9911 3.48735C10.8892 3.60555 10.8223 3.83925 10.7675 3.9836C10.704 4.15574 10.6435 4.32895 10.5844 4.5026C10.4653 4.84869 10.351 5.19804 10.2507 5.5492C9.95854 6.59089 9.85911 7.68417 9.93559 8.75329C10.0291 10.1779 10.4226 11.5559 10.8691 12.9097C10.9792 13.248 11.2454 14.1123 11.3642 14.4367C11.4255 14.6058 11.4888 14.7773 11.5734 14.9318C11.5734 14.9318 11.593 14.9651 11.593 14.9651C11.5994 14.9765 11.6059 14.9881 11.6113 14.9932L11.6272 15.0139C11.632 15.02 11.6375 15.0306 11.6406 15.0292C11.6489 15.0298 11.6556 15.0427 11.6533 15.0291C11.6526 15.0143 11.6261 14.9713 11.6056 14.9515C11.5606 14.8969 11.499 14.8533 11.4364 14.8184C11.3956 14.7808 11.3316 14.7705 11.4275 14.7515C11.7035 14.6859 12.0501 14.5366 12.3184 14.3901C14.2076 13.3912 18.0691 10.1323 18.4551 8.07995C18.4975 7.84138 18.4981 7.6081 18.4291 7.37902C18.3727 7.21365 18.2452 7.03479 18.1128 6.88589C17.8563 6.59258 17.5283 6.34284 17.2131 6.1072C15.6041 4.96637 13.8248 4.05889 12.0142 3.24669ZM12.0142 3.24669C12.8346 3.61375 13.6685 3.96391 14.5092 4.29002C15.0807 4.52898 15.6549 4.75602 16.2331 4.98261C16.9572 5.27442 17.6878 5.53791 18.3838 5.90816C18.7838 6.12839 19.1409 6.35181 19.4389 6.71604C20.3253 7.83837 20.0418 9.40038 19.5843 10.6168C18.6005 13.0743 16.7486 15.1628 14.4273 16.5668C13.5552 17.0597 12.6467 17.4612 11.5919 17.4974C10.5721 17.5219 9.65162 17.1111 9.23051 16.1897C9.02683 15.7533 8.94735 15.2757 8.88909 14.8081C8.79298 13.9091 8.75369 13.0291 8.73587 12.1226C8.70764 10.1295 9.02301 8.09837 9.71737 6.25382C9.89508 5.75383 10.2679 4.95883 10.4878 4.4677C10.5638 4.29997 10.6394 4.13216 10.7127 3.96353C10.7756 3.83402 10.8628 3.58199 10.9701 3.47149C11.2144 3.18245 11.6647 3.08292 12.0142 3.24669Z" fill="#FFB709"/>
<path d="M42.994 15.4491C42.3725 14.0661 41.571 12.7746 40.6176 11.6013C40.1596 11.0378 39.6667 10.5015 39.1418 9.99548C35.8024 6.77618 31.1714 4.78204 26.0529 4.78204C15.8749 4.78204 7.62402 12.6658 7.62402 22.391C7.62402 22.763 7.6367 23.1321 7.66049 23.4984C7.70743 24.2211 7.79973 24.9319 7.93518 25.6284C8.19851 26.9823 8.62397 28.2818 9.19159 29.5078L10.139 31.2758C10.1524 31.2977 10.1654 31.3198 10.179 31.3416C11.2066 31.123 12.0452 30.8864 13.4036 30.4871C13.9312 30.3319 14.8778 30.1456 17.4408 29.0749L27.2092 23.2465C27.8147 22.9907 28.4157 22.7325 29.0117 22.4726C29.3343 22.0496 29.6379 21.5746 29.9036 21.043C30.0171 20.816 31.425 17.8921 30.4921 14.5165C30.3965 14.1706 30.3055 13.9202 30.2558 13.7885C30.3645 13.9714 30.5258 14.2305 30.7387 14.5294C31.1372 15.0889 32.6025 17.0973 35.099 18.2061C35.6984 18.4724 36.296 18.6594 36.8771 18.7861L38.8882 18.7885L40.987 18.847C41.6136 18.7392 42.0851 18.6058 42.3344 18.5303C42.1139 18.6319 41.8013 18.7861 41.4441 19.0003C40.8811 19.3378 38.8239 20.6532 37.7134 23.139C36.2778 26.3524 37.4026 29.3314 37.6554 29.9573C37.5592 29.7943 37.4148 29.56 37.2239 29.2883C36.7583 28.6259 34.9435 26.0435 31.5308 25.1485C30.837 24.9666 30.1654 24.8702 29.5373 24.8319C26.7047 26.7228 25.1614 28.9905 23.8257 30.4006C22.7136 31.5746 20.5252 34.4151 18.7146 38.5484C20.9632 39.4821 23.4447 40 26.0529 40C36.2308 40 44.4817 32.1162 44.4817 22.391C44.4817 20.6252 44.2095 18.9202 43.7033 17.312L43.4208 16.4503L42.994 15.4491ZM19.4161 20.5619C19.15 20.6843 18.1733 21.1677 17.554 22.2128C16.7533 23.5638 17.0955 24.9325 17.1746 25.2209C17.1407 25.1444 17.089 25.034 17.0188 24.905C16.8476 24.5905 16.1802 23.3642 14.7196 22.8073C13.6961 22.4171 12.7352 22.4859 12.2876 22.5751L11.9599 22.6297C12.3079 22.5137 13.4517 22.0859 14.2141 20.9173C14.2759 20.8225 15.0493 19.598 14.8125 18.0632C14.7882 17.906 14.761 17.7911 14.7459 17.7306C14.7844 17.8165 14.8422 17.9386 14.9207 18.0806C15.0677 18.3466 15.6105 19.3028 16.6554 19.9107C18.0098 20.6987 19.461 20.4668 19.8336 20.3966C19.731 20.4309 19.5849 20.4843 19.4161 20.5619Z" fill="url(#paint1_radial_3_32329)"/>
<path d="M44.4817 22.391C44.4817 20.7693 44.2515 19.199 43.8219 17.7077C43.434 17.9266 43.1492 18.074 42.9983 18.1509C42.6177 18.3449 42.29 18.4989 41.9927 18.6275C42.1318 18.5904 42.2471 18.5568 42.3345 18.5303C42.1139 18.6319 41.8014 18.7862 41.4442 19.0003C40.8812 19.3378 38.824 20.6533 37.7134 23.139C36.2778 26.3524 37.4026 29.3314 37.6554 29.9573C37.5593 29.7943 37.4148 29.56 37.2239 29.2883C36.7584 28.6259 34.9436 26.0435 31.5308 25.1485C30.837 24.9666 30.1655 24.8702 29.5374 24.8319C26.7047 26.7229 25.1615 28.9905 23.8257 30.4006C22.7137 31.5746 20.5253 34.4151 18.7146 38.5484C20.9632 39.4821 23.4448 40 26.0529 40C36.2309 40 44.4817 32.1162 44.4817 22.391Z" fill="url(#paint2_radial_3_32329)"/>
<path opacity="0.18" d="M22.5917 20.9663C24.8806 16.0264 24.116 10.9134 20.8839 9.54609C17.6518 8.17876 13.1761 11.0749 10.8872 16.0148C8.59822 20.9547 9.36282 26.0677 12.5949 27.435C15.8271 28.8024 20.3027 25.9062 22.5917 20.9663Z" fill="white"/>
<path opacity="0.22" d="M20.057 20.0064C21.8623 16.1104 21.4631 12.164 19.1653 11.192C16.8676 10.2199 13.5415 12.5903 11.7362 16.4864C9.93098 20.3824 10.3302 24.3288 12.6279 25.3008C14.9256 26.2728 18.2518 23.9025 20.057 20.0064Z" fill="white"/>
<path d="M41.3953 11.5362C43.4577 10.9889 45.5818 10.5548 47.0085 10.3667C48.912 10.1156 49.6728 10.2671 49.9321 10.357C49.7603 10.7547 48.8181 12.2084 43.7084 15.3003C43.5734 15.382 43.4367 15.4639 43.2988 15.5462C42.9218 15.7708 42.534 15.9975 42.1354 16.2259C40.6222 17.0933 38.9583 17.9853 37.1819 18.8832C38.7782 19.2313 40.2498 19.1233 41.2918 18.9441C41.8545 18.638 42.4019 18.3338 42.9319 18.0321C43.2991 17.8231 43.6577 17.6154 44.0081 17.4091C44.5146 17.1109 45.0035 16.8156 45.4726 16.5241C47.6426 15.1755 49.2933 13.9697 50.379 12.9403C50.9017 12.4447 52.4923 10.9366 51.8494 9.54722C51.1962 8.13566 48.9378 8.20343 47.2957 8.37723C45.7446 8.5414 43.4288 9.00304 41.1105 9.60918" fill="#FFB709"/>
<path d="M12.4751 28.6117C11.6501 28.8553 10.8518 29.0785 10.0847 29.2799C9.77543 29.361 9.47832 29.4367 9.19157 29.5078C4.0704 30.7777 2.47076 30.4905 2.06974 30.3521C2.17758 30.1017 2.59149 29.4331 4.16887 28.194C5.14851 27.4244 6.42597 26.5551 7.93516 25.6284C7.79971 24.9319 7.70741 24.2211 7.66047 23.4984C5.47921 24.7977 3.69514 26.0101 2.43691 27.0516C1.13746 28.1273 -0.513119 29.7236 0.1526 31.1623C0.742589 32.4373 2.6756 32.4502 3.55824 32.4159C3.63742 32.4129 3.70827 32.4094 3.7688 32.4064C5.29634 32.3318 7.34062 31.9765 9.84486 31.3502C9.94227 31.3259 10.0405 31.3009 10.139 31.2759C10.9986 31.0568 11.8966 30.8105 12.8281 30.5385C14.2912 30.1112 15.8363 29.6205 17.4408 29.0749C18.6866 28.5544 20.3143 27.825 22.4616 26.7886C24.1241 25.9861 25.6861 25.129 27.0877 24.36C27.7108 23.8983 28.3958 23.2801 29.0116 22.4726C28.4157 22.7325 27.8147 22.9907 27.2091 23.2465C21.9905 25.4513 16.8566 27.3181 12.4751 28.6117Z" fill="url(#paint3_radial_3_32329)"/>
<defs>
<radialGradient id="paint0_radial_3_32329" cx="0" cy="0" r="1" gradientTransform="matrix(121.555 -35.7663 20.6312 64.0172 55.1191 -12.3054)" gradientUnits="userSpaceOnUse">
<stop offset="0.00559" stop-color="#F2601B"/>
<stop offset="1" stop-color="#FFC61F"/>
</radialGradient>
<radialGradient id="paint1_radial_3_32329" cx="0" cy="0" r="1" gradientUnits="userSpaceOnUse" gradientTransform="translate(67.4058 20.0035) scale(42.6269 40.7305)">
<stop offset="0.00559" stop-color="#F2611B"/>
<stop offset="1" stop-color="#FEB10A"/>
</radialGradient>
<radialGradient id="paint2_radial_3_32329" cx="0" cy="0" r="1" gradientTransform="matrix(27.3536 -12.6915 6.58237 12.9527 26.9912 24.5322)" gradientUnits="userSpaceOnUse">
<stop offset="0.00559" stop-color="#F2611B"/>
<stop offset="1" stop-color="#FEB10A"/>
</radialGradient>
<radialGradient id="paint3_radial_3_32329" cx="0" cy="0" r="1" gradientTransform="matrix(30.4384 -8.95615 5.16622 16.0304 30.7518 19.4111)" gradientUnits="userSpaceOnUse">
<stop offset="0.00559" stop-color="#F2601B"/>
<stop offset="1" stop-color="#FFC61F"/>
</radialGradient>
</defs>
</svg>
