<svg width="32" height="32" viewBox="0 0 32 32" fill="none" xmlns="http://www.w3.org/2000/svg">
    <g clip-path="url(#clip0_497_40012)">
        <rect width="32" height="32" rx="8" fill="#573970"/>
        <path d="M26.6039 57.7524C27.164 47.6506 24.2497 33.1421 16.4689 26.2275C15.5107 25.3759 12.2968 22.7006 8.88605 18.243C5.41656 13.7087 3.68181 11.4415 3.39841 8.57091C2.6477 0.96689 12.0898 -2.44048 10.9799 -8.46455C10.1336 -13.0579 4.37038 -12.5605 1.11906 -17.4901C-4.70705 -26.3237 5.35894 -40.7152 6.84187 -47.2645L-19.8107 -25.7964C-20.6884 -23.0922 -20.9092 -20.3273 -19.7075 -17.9706C-18.8478 -16.2845 -17.5241 -15.3252 -16.2673 -14.4144C-10.6741 -10.361 -5.6104 -12.7697 -2.18198 -9.07922C-0.37092 -7.12974 -0.110881 -4.65666 -0.0322134 -3.90847C0.622639 2.3196 -5.52641 4.81932 -5.69719 10.1453C-5.86475 15.3706 -0.0585158 16.4738 2.45584 21.6968C6.46672 30.0286 -2.77211 38.719 -8.4184 49.834L18.357 83.0755C22.9534 76.1974 26.1331 66.2441 26.6039 57.7524Z" fill="#9669BE"/>
        <path d="M14.9362 44.5397C15.7705 38.8081 20.8772 35.7626 22.1231 35.0778C22.157 35.0592 22.1909 35.0416 22.2248 35.0233C27.9244 31.9492 34.0816 33.5463 34.0854 33.7928C34.0887 34.0071 29.4378 33.1811 24.527 35.2874C23.8069 35.5963 23.0813 35.9678 22.3638 36.4154C22.0012 36.6416 21.3156 37.0695 20.5261 37.6972C19.662 38.3841 18.6736 39.3106 17.8471 40.475C16.97 41.7109 16.2755 43.2145 16.1068 44.9841C16.0586 45.4899 15.6671 50.406 19.2256 52.635C20.7595 53.5959 23.0398 52.4054 23.7677 53.5727C23.9335 53.8387 24.0663 54.2756 23.8888 54.5987C23.7697 54.8155 23.5148 54.9714 23.1726 55.0715C22.437 55.2868 21.2931 55.241 20.1981 54.9698C19.6408 54.8317 19.0962 54.6355 18.6245 54.3851C15.4749 52.7131 14.4282 48.0292 14.9362 44.5397Z" fill="#C98146"/>
        <path d="M20.2035 -5.92335C20.3537 -6.018 20.581 -6.16101 20.8076 -6.25752C20.797 -6.30106 20.7869 -6.34495 20.7778 -6.38958C20.5605 -7.45122 20.8276 -8.40508 21.3743 -8.52009C21.8305 -8.61606 22.2378 -8.49709 22.5194 -7.7061C22.6088 -8.33383 22.9738 -8.38675 23.3321 -8.42853C23.7156 -8.47323 24.0484 -8.32464 24.2642 -7.66086C24.3583 -8.07796 24.5889 -8.06986 24.8253 -8.09741C25.2397 -8.14571 25.6609 -7.39575 25.7662 -6.4223C25.8055 -6.05835 25.7951 -5.71475 25.745 -5.42456C25.7475 -5.41868 25.7494 -5.41232 25.7519 -5.40638C25.8618 -5.13898 25.8927 -4.80946 25.8968 -4.35508C25.9087 -3.02025 25.9147 -2.35285 25.5948 -1.82602C25.0012 -0.848652 23.9703 -0.549571 23.7438 -0.489891C23.7299 -0.486229 23.7137 -0.48196 23.6962 -0.477462C23.4062 -0.402819 22.6388 -0.231803 21.8899 -0.582612C21.5356 -0.748595 21.5219 -0.873831 20.7477 -1.66351C19.7181 -2.7136 19.4435 -2.79691 19.1778 -3.38465C19.035 -3.70073 18.8377 -4.13713 18.967 -4.64435C19.1188 -5.23985 19.6254 -5.55907 20.2035 -5.92335Z" fill="#CFA24B"/>
        <path d="M0.59463 24.3497C0.180996 22.1451 1.69345 19.7867 3.7463 19.2967C3.858 19.2701 3.96842 19.2503 4.0777 19.2354C4.72938 19.1468 5.33522 19.2568 5.85646 19.4441C5.84718 19.3409 5.83951 19.2418 5.83252 19.1448C5.79805 18.6667 5.78892 18.2657 5.78562 17.9777C5.77084 16.6861 5.73932 13.8875 7.54307 11.1346C7.59528 11.0549 7.64851 10.9753 7.70385 10.8957C7.82237 10.7253 7.94463 10.5618 8.06929 10.4034C8.08092 10.3886 8.09222 10.3731 8.1039 10.3584C7.62117 10.0707 7.26272 9.67477 7.05647 9.4461C6.38933 8.70639 6.01896 7.75419 6.18035 7.63741C6.18555 7.63365 6.1911 7.63098 6.19696 7.62923C6.37413 7.57634 6.85385 8.42324 7.80851 8.79992C8.17159 8.94318 8.53754 8.99172 8.89404 8.98118C8.85562 8.9346 8.81865 8.88695 8.78255 8.83871C8.30462 8.20001 8.03168 7.42276 7.99241 6.6737C7.92265 5.34323 8.58732 4.12819 8.87933 4.08767C8.88964 4.08624 8.89958 4.08598 8.90891 4.08752C9.20702 4.13692 8.70574 5.68265 9.42665 6.61099C9.47236 6.66985 9.52264 6.72642 9.57871 6.77978C10.2611 7.42925 11.1953 7.10564 11.949 7.31716C13.6383 6.49295 15.1451 6.22721 15.6937 6.1306C17.715 5.77457 19.5126 5.95286 20.996 6.32059C20.982 6.30132 20.9687 6.28187 20.9562 6.26214L21.0313 6.32867L21.0722 6.33975C21.1102 6.34941 21.149 6.35863 21.1866 6.36852C21.0367 5.7582 20.9976 5.03339 21.2509 4.26548C21.7166 2.85386 22.9828 1.8675 24.3725 1.52397C24.4033 1.51636 24.4338 1.50728 24.4647 1.50031C24.7208 1.44249 24.9806 1.40628 25.2399 1.39365C27.3378 1.2915 29.1964 2.72342 29.7371 4.58294C29.798 4.79235 30.292 6.60555 29.1301 8.2122C28.6817 8.83222 28.083 9.28734 27.4218 9.58076C27.4878 9.63709 27.5529 9.69508 27.6175 9.75385C28.3498 10.4201 28.9827 11.2472 29.3469 12.3296C29.9993 14.269 29.4524 16.0223 29.0104 17.3744C28.596 18.6423 28.0116 19.7563 27.3456 20.7316C27.3266 20.7594 27.3078 20.7875 27.2887 20.8151C27.3362 20.8282 27.3845 20.8421 27.4332 20.8562C29.1132 21.344 31.4598 22.4051 33.575 24.2916C33.885 24.5681 34.2467 24.891 34.6222 25.2598C34.6257 25.2531 34.6295 25.247 34.633 25.2403C34.6722 25.1656 34.713 25.0933 34.7549 25.023C35.3607 24.0076 36.2216 23.444 36.5367 23.244C36.9604 22.9753 37.6002 22.5792 38.5178 22.4836C40.2314 22.3049 41.4749 23.3241 41.6126 23.4406C42.8326 24.473 43.0682 25.9953 43.2662 27.2746C43.397 28.1197 43.2821 28.17 43.4695 29.699C43.5025 29.9686 43.5325 30.2132 43.5607 30.4363C43.6905 31.4662 43.7783 32.0179 43.9186 32.2384C43.9234 32.246 43.9327 32.2605 43.9408 32.2786C43.9527 32.3052 43.9622 32.34 43.9509 32.3742C43.8922 32.5522 43.3676 32.429 42.6427 32.5189C42.088 32.5876 41.4634 32.6651 40.967 33.0985C40.8573 33.1943 40.8109 33.2577 40.7409 33.2489C40.4592 33.2133 40.6133 32.0299 40.3687 30.6212C40.1743 29.502 40.0164 28.5927 39.2728 28.0031C38.3611 27.2804 37.142 27.4923 37.081 27.5039C36.9252 27.5333 36.7813 27.5758 36.6466 27.627C36.6128 27.6399 36.5791 27.653 36.5465 27.6669C36.6715 27.8842 36.7872 28.1097 36.8925 28.3426C37.297 29.2368 37.539 30.2461 37.4756 31.3742C37.4458 31.9059 37.3508 32.4022 37.2146 32.8615C36.579 35.0062 35.0272 36.3292 34.8099 36.5087C33.9957 37.1812 33.1426 37.5931 32.3567 37.8442C32.2859 37.8668 32.2155 37.8886 32.1459 37.9087C31.8845 37.9841 31.6315 38.0426 31.3919 38.0868C31.3802 38.1524 31.3655 38.22 31.3492 38.2892C31.218 38.8479 30.9643 39.5307 30.972 40.4845C30.9867 42.315 31.9547 43.7054 32.9245 45.0974C33.7866 46.3347 35.0565 47.6321 35.4082 47.7567C35.4259 47.7629 35.5029 47.788 35.5275 47.852C35.5907 48.0162 35.2456 48.2702 34.9638 48.5152C34.7863 48.6696 34.6249 48.8396 34.4715 49.0175C33.9919 49.5735 33.5794 50.1192 33.5794 50.1192C33.5794 50.1192 33.5683 50.1135 33.5487 50.1034C33.3782 50.0147 32.499 49.5484 31.4919 48.8444C30.9056 48.4346 30.2761 47.9445 29.7175 47.401C29.1338 46.833 27.8671 45.5714 27.2312 43.5292C27.0409 42.9178 26.6494 41.6069 26.9561 39.9704C27.0286 39.5836 27.2025 38.6582 27.6193 37.8454C27.5668 37.8271 27.5144 37.8084 27.4618 37.7888C27.4406 37.7815 27.4191 37.7735 27.3978 37.766C26.615 37.4882 25.7216 37.0344 24.9064 36.2885C24.2039 35.6457 23.8096 35.0145 23.4353 34.1866C23.1197 33.4884 22.8183 32.6505 22.3587 31.5464C22.061 30.8312 21.6788 29.9625 21.1981 28.9726C21.1969 28.9767 21.1958 28.9808 21.1946 28.9848C21.1714 29.0623 21.1486 29.1408 21.1259 29.2199C20.7246 30.621 20.4031 32.2856 20.4809 34.2335C20.5054 34.8487 20.5687 35.4592 20.6584 36.0479C20.7412 36.5919 20.8466 37.1169 20.9654 37.6095C21.3877 39.36 21.9774 40.6982 22.3119 41.0016C22.3398 41.0269 22.476 41.1448 22.4484 41.2539C22.387 41.4969 21.5867 41.4022 20.9324 41.5677C20.7739 41.6078 19.533 42.0322 19.173 42.8953C19.1651 42.9143 19.158 42.932 19.1497 42.9467C19.1399 42.964 19.1284 42.9772 19.1113 42.9817C19.0088 43.009 18.8024 42.7116 18.5543 42.2082C18.056 41.1973 17.3882 39.3515 17.0481 37.6069C16.7655 36.1573 16.2907 33.5524 17.3008 30.4492C17.6288 29.4417 18.0482 28.5826 18.4904 27.85C18.5387 27.7699 18.5874 27.6923 18.6362 27.6152C18.6472 27.5977 18.6582 27.5792 18.6693 27.5619C16.6583 28.487 14.3979 29.0948 12.2115 28.5597C10.4441 28.1272 9.44963 27.326 8.82563 26.6431C8.74925 26.5595 8.6781 26.4776 8.61209 26.3984C8.59415 26.4166 8.57544 26.4341 8.55712 26.452C7.38361 27.597 5.43992 28.1361 3.78366 27.6836C2.30714 27.2803 0.913613 26.0498 0.59463 24.3497ZM36.674 31.5929C36.1236 30.5388 35.3447 29.5131 34.4902 28.6338C35.3428 29.5112 36.1202 30.5345 36.6703 31.5862C36.6715 31.5885 36.6728 31.5907 36.674 31.5929ZM29.288 36.3183C29.2721 36.3059 29.2568 36.2937 29.2411 36.2814C28.9017 36.015 28.602 35.7589 28.3521 35.5448C28.6135 35.7688 28.929 36.0387 29.288 36.3183Z" fill="#C98146"/>
        <path d="M18.967 -4.64435C19.1188 -5.23985 19.6254 -5.55907 20.2035 -5.92336C20.3537 -6.018 20.581 -6.16101 20.8076 -6.25752C20.797 -6.30106 20.7869 -6.34495 20.7778 -6.38958C20.5605 -7.45122 20.8276 -8.40508 21.3743 -8.52009C21.8305 -8.61606 22.2378 -8.49709 22.5194 -7.7061C22.6088 -8.33383 22.9738 -8.38675 23.3321 -8.42853C23.7156 -8.47323 24.0484 -8.32464 24.2642 -7.66086C24.3583 -8.07796 24.5889 -8.06986 24.8253 -8.09741C25.2397 -8.14571 25.6609 -7.39575 25.7662 -6.4223C25.8055 -6.05835 25.7951 -5.71475 25.745 -5.42456C25.7475 -5.41868 25.7494 -5.41232 25.7519 -5.40638C25.6332 -5.24436 25.5506 -4.9663 25.3107 -4.93448C24.9851 -4.89129 24.7542 -5.35359 24.5467 -5.26683C24.3733 -5.19433 24.4972 -4.85595 24.2507 -4.61695C24.0843 -4.45563 23.8054 -4.39397 23.5869 -4.4515C23.131 -4.57154 22.9905 -5.19675 22.8617 -5.15628C22.7622 -5.12499 22.8969 -4.76727 22.7048 -4.38102C22.6215 -4.21366 22.4039 -3.89431 22.1605 -3.90399C21.8025 -3.91823 21.7328 -4.63094 21.3263 -4.65624C21.1507 -4.66717 20.9641 -4.5466 20.8807 -4.39584C20.7772 -4.20861 20.8501 -4.00595 20.8718 -3.94552C20.9573 -3.70762 21.1544 -3.57687 21.2097 -3.53898C21.4881 -3.34814 21.7232 -3.03118 22.1934 -2.39724C22.814 -1.56067 22.4544 -1.01469 22.8513 -0.683515C23.037 -0.528492 23.3382 -0.463947 23.6962 -0.477462C23.4062 -0.40282 22.6388 -0.231805 21.8899 -0.582613C21.5356 -0.748597 21.5219 -0.873832 20.7477 -1.66352C19.7181 -2.7136 19.4435 -2.79691 19.1778 -3.38465C19.035 -3.70073 18.8377 -4.13713 18.967 -4.64435Z" fill="#DEB769"/>
        <path d="M22.851 -0.683473C22.4542 -1.01465 22.8138 -1.56063 22.1932 -2.3972C21.723 -3.03114 21.4878 -3.3481 21.2094 -3.53894C21.1542 -3.57683 20.957 -3.70758 20.8715 -3.94548C20.8498 -4.00591 20.777 -4.20857 20.8805 -4.3958C20.9639 -4.54656 21.1504 -4.66713 21.3261 -4.6562C21.7326 -4.6309 21.8023 -3.91819 22.1603 -3.90395C22.4037 -3.89427 22.6213 -4.21362 22.7045 -4.38098C22.8967 -4.76723 22.762 -5.12495 22.8615 -5.15624C22.9903 -5.19671 23.1308 -4.5715 23.5866 -4.45146C23.8051 -4.39393 24.0841 -4.45559 24.2505 -4.6169C24.4969 -4.85591 24.3731 -5.19429 24.5465 -5.26679C24.754 -5.35355 24.9849 -4.89125 25.3105 -4.93443C25.5504 -4.96626 25.633 -5.24432 25.7517 -5.40634C25.8616 -5.13894 25.8925 -4.80942 25.8966 -4.35503C25.9085 -3.02021 25.9145 -2.35281 25.5946 -1.82598C25.001 -0.848612 23.9701 -0.54953 23.7436 -0.489851C23.7297 -0.486188 23.7134 -0.481921 23.6959 -0.477422C23.338 -0.463908 23.0368 -0.528451 22.851 -0.683473Z" fill="#CFA24B"/>
        <path d="M16.4795 51.3333C15.2425 49.0436 15.4694 46.8244 15.5855 45.6883C15.677 44.7935 16.0028 42.6576 17.4185 40.516C18.2963 39.188 19.3787 38.2389 21.5435 36.3407C22.0255 35.918 22.4203 35.5879 22.7336 35.3321C28.4332 32.2581 34.5904 33.8551 34.5942 34.1016C34.5975 34.3159 29.9466 33.4899 25.0358 35.5963C24.8946 35.3956 24.7131 35.124 24.7131 35.124C24.2447 35.286 23.716 35.5065 23.1582 35.8102C22.1687 36.3489 21.4219 36.9674 20.8916 37.4847L21.0349 38.006C20.1708 38.693 19.1824 39.6194 18.3559 40.7839L18.1511 40.056C17.6452 40.8473 16.7646 42.2446 16.4048 44.0332C15.8634 46.7247 16.467 48.8261 16.6739 49.4712C17.0429 50.6217 17.6722 52.5841 19.2694 53.3905C19.7856 53.6511 20.9995 54.0921 21.7587 53.9543C21.8137 53.9443 22.0515 53.8977 22.3732 53.8971C22.6383 53.8967 22.9811 53.8994 23.345 54.0604C23.5811 54.1647 23.9305 54.3193 24.0103 54.6093C24.0905 54.9004 23.8566 55.1725 23.6814 55.3804C22.9458 55.5956 21.8019 55.5499 20.7069 55.2786C20.4912 55.1651 20.2637 55.0359 20.0259 54.8876C19.1865 54.3638 17.551 53.3165 16.4795 51.3333Z" fill="#B16A31"/>
        <path d="M29.272 22.9617C30.8304 22.2017 30.7802 19.2253 30.7357 16.5905C30.7213 15.7335 30.6438 13.6363 29.9299 10.4648C29.3443 7.86315 29.0855 7.89321 27.913 3.5528C27.0699 0.431392 26.6483 -1.12931 26.7385 -1.66992C26.7481 -1.72777 26.7902 -1.95179 26.6721 -2.04835C26.4675 -2.2157 25.995 -1.79559 25.1965 -1.39252C24.7648 -1.17466 23.0194 -0.293626 22.0177 -0.608698C21.9605 -0.62668 21.8359 -0.670531 21.7682 -0.612785C21.54 -0.41821 22.2232 0.703272 22.3662 0.945148C23.031 2.06897 23.5639 3.81785 24.6298 7.31561C25.6845 10.7767 27.039 15.2216 26.3207 19.5365C26.2105 20.1985 25.9166 21.668 26.7334 22.5062C27.327 23.1156 28.4701 23.3529 29.272 22.9617Z" fill="#9C5A26"/>
        <path d="M8.52556 25.8759C8.61298 26.0256 8.69853 26.1722 8.78535 26.3164C8.68654 26.4152 8.57477 26.518 8.44782 26.6208C8.3125 26.7303 7.63621 27.2639 6.60585 27.5066C6.23196 27.5946 5.30767 27.7997 4.21669 27.4406C3.07611 27.0651 2.43662 26.2979 2.20131 25.9798C1.99886 25.7062 1.32144 24.7612 1.40293 23.4263C1.47299 22.2787 2.06425 21.4923 2.28056 21.2125C3.02046 20.2555 4.00535 19.8029 4.58624 19.5443C5.23791 19.4556 5.84375 19.5657 6.36499 19.7529C6.35571 19.6497 6.34804 19.5507 6.34105 19.4537C6.50017 20.1168 6.71094 20.8822 6.97067 21.8253C7.61989 24.1827 8.12866 25.1964 8.52556 25.8759Z" fill="#B16A31"/>
        <path d="M25.2475 8.04793L24.2587 7.59434C24.5606 7.71938 24.8938 7.86959 25.2475 8.04793Z" fill="#B16A31"/>
        <path d="M18.6952 30.1052C19.0924 29.102 19.5435 28.3127 19.8898 27.7698L20.8594 26.8455C21.2976 26.5161 21.7506 26.167 22.2252 25.8008C23.597 24.7424 24.7178 23.7073 25.4777 22.9441C25.7592 22.84 26.8927 22.4408 27.908 22.3681C28.5459 22.3224 29.3311 22.408 30.9431 23.1693C32.0745 23.7037 33.7407 24.6311 35.5689 26.2199L35.1416 25.5491C35.1808 25.4744 35.2215 25.4021 35.2635 25.3318C35.7199 25.2159 36.7222 23.695 38.5965 23.449C40.4815 23.2015 41.9279 24.4177 41.9889 24.4705C43.3073 25.6141 43.5621 27.4137 43.6619 28.1183C43.8083 29.1525 43.6794 29.8962 44.0693 30.7451C44.1991 31.775 44.2869 32.3267 44.4271 32.5472C44.432 32.5548 44.4412 32.5693 44.4494 32.5874C44.1386 32.3966 43.7045 32.2634 43.5019 32.2016C42.9814 32.0426 42.8605 32.1271 42.6093 32.0079C41.9415 31.6911 41.9986 30.7152 41.7018 29.4069C41.4221 28.1744 41.0644 26.5977 40.0198 26.2095C39.183 25.8985 38.2307 26.4711 37.9192 26.6583C37.6831 26.8002 37.0871 27.1587 36.9493 27.6373C36.4828 26.9975 36.0602 26.6453 36.0159 26.6739C35.9305 26.7292 37.3514 28.1448 37.4408 30.1488C37.4689 30.7813 37.36 31.3723 37.1826 31.9017C36.3027 30.2165 34.8385 28.6037 33.4156 27.546C33.1881 27.377 28.7274 24.1394 26.4085 25.8038C25.3737 26.5464 24.8737 27.7807 24.7982 28.4775C24.3977 32.1763 28.024 35.1372 28.8606 35.8537C29.1221 36.0776 29.4376 36.3475 29.7965 36.6271C29.517 36.6086 29.2433 36.5745 28.9785 36.5253C27.6265 36.2742 26.6844 35.6658 26.389 35.4637C25.4256 34.8046 24.8915 34.0539 24.0836 32.7737C22.1598 29.7254 21.36 27.9164 21.2384 27.9671C21.1804 27.9913 21.2785 28.4546 21.5178 29.1847C21.283 29.5541 20.9033 30.6641 20.6613 31.6743C20.1293 33.8946 19.7609 36.434 20.6762 38.8185C20.8257 39.208 20.9364 39.9699 20.7196 40.5894C20.5406 41.1007 20.3761 41.1453 19.9092 41.7942C19.6289 42.1837 19.3962 42.8412 19.6446 43.2364C19.6487 43.243 19.6538 43.2491 19.6582 43.2556C19.6485 43.2729 19.637 43.286 19.6199 43.2905C19.5174 43.3178 19.311 43.0205 19.0629 42.517C18.3316 40.6094 18.0304 38.9382 17.8983 37.7398C17.7158 36.0842 17.4393 33.278 18.6952 30.1052Z" fill="#B16A31"/>
        <path d="M27.7586 9.7417C27.3061 9.35529 26.9078 9.04987 26.6104 8.83145C26.6962 8.8873 26.7823 8.94416 26.8687 9.00324C27.2398 9.25685 27.5211 9.51561 27.7586 9.7417Z" fill="#B16A31"/>
        <path d="M29.0575 3.33683C29.3337 3.65775 30.1154 4.67038 30.0249 6.09363C30.011 6.31074 29.9198 7.43531 29.068 8.33781C28.8207 8.5998 28.4756 8.96544 27.9691 9.02776C27.3326 9.10608 26.8344 8.65699 26.4411 8.36305C25.0842 7.3488 23.5371 7.10487 22.928 7.05373L22.6926 6.9713C22.7285 6.73257 22.2063 6.29559 22.0934 5.56325C21.8619 4.06171 23.5654 2.65927 23.7425 2.5171C24.1627 2.17969 24.5736 1.96731 24.8808 1.83282C24.9116 1.82521 24.9421 1.81613 24.973 1.80916C25.483 1.78118 26.0378 1.81307 26.6161 1.95028C27.1028 2.06578 28.2021 2.34277 29.0575 3.33683Z" fill="#B16A31"/>
        <path d="M25.2538 8.05119C25.6786 8.26571 26.133 8.52148 26.5988 8.82404L25.2538 8.05119Z" fill="#B16A31"/>
        <path d="M25.5881 22.8324C26.236 22.1738 26.59 21.743 26.5683 21.7205C26.5226 21.6731 25.0122 23.6226 22.3028 25.056C21.3663 25.5514 18.3855 27.0772 14.5343 26.608C13.1178 26.4355 11.1117 26.1911 9.41505 24.6406C7.29877 22.7067 7.08491 20.0394 6.98403 18.7813C6.91849 17.9638 6.79201 15.1608 8.39841 12.5184C9.11139 11.3456 9.96343 10.2287 9.83072 10.0917C9.79663 10.0565 9.69392 10.0732 9.54482 10.1334C9.07017 10.0544 7.88568 9.77074 7.12161 8.71851C6.92671 8.45011 6.79566 8.18134 6.70538 7.93805C6.88255 7.88516 7.36228 8.73205 8.31694 9.10873C8.68002 9.252 9.04597 9.30053 9.40247 9.29C9.36404 9.24341 9.32707 9.19577 9.29097 9.14753C9.54845 9.24171 9.91319 9.32694 10.3346 9.27267C11.0779 9.17694 11.7313 8.68138 11.6712 8.49147C11.5972 8.25755 10.5313 8.77382 9.75747 8.24295C9.00626 7.7276 8.98559 6.5378 8.98002 6.21764C8.96518 5.36355 9.25425 4.76538 9.38776 4.39649C9.39807 4.39505 9.40801 4.39479 9.41734 4.39633C9.71544 4.44573 9.21416 5.99147 9.93507 6.9198C10.0449 7.13989 10.1915 7.33274 10.3705 7.4714C10.8886 7.8729 11.6849 7.83044 12.0465 7.81116C12.4068 7.79195 12.7009 7.72185 12.8987 7.66278C14.2222 7.12387 17.4473 6.03007 21.2637 6.95423C22.6948 7.30078 25.6052 8.00556 27.5267 10.717C29.1597 13.0214 29.1524 15.4686 29.1145 16.2744C28.9967 18.7752 27.4785 20.6908 26.9839 21.3822L27.7763 21.078C27.8024 21.0662 27.8281 21.0529 27.854 21.0404C27.835 21.0682 27.8162 21.0963 27.7971 21.1239C27.8446 21.1371 27.8929 21.1509 27.9416 21.165C27.5331 21.4238 27.1139 21.7125 26.8957 21.8629C26.4986 22.1366 25.887 22.6026 25.5881 22.8324Z" fill="#B16A31"/>
        <path d="M9.50612 25.5888C9.39501 25.5401 9.21099 25.8907 8.78512 26.3164C8.6983 26.1722 8.61275 26.0256 8.52533 25.8759C8.12843 25.1964 7.61966 24.1826 6.97044 21.8253C6.71071 20.8822 6.49994 20.1168 6.34082 19.4537C6.30635 18.9756 6.29722 18.5745 6.29392 18.2865C6.27914 16.995 6.24763 14.1963 8.05137 11.4435L9.67211 10.1526C9.63889 10.1481 9.59578 10.1419 9.54469 10.1334C9.6938 10.0733 9.79651 10.0566 9.83059 10.0918C9.9633 10.2287 9.11127 11.3456 8.39828 12.5185C6.79188 15.1609 6.91836 17.9638 6.98391 18.7814C7.08478 20.0395 7.29864 22.7068 9.41492 24.6407C11.1116 26.1912 13.1177 26.4355 14.5341 26.6081C18.3854 27.0773 21.3662 25.5515 22.3026 25.056C25.0121 23.6226 26.5225 21.6732 26.5682 21.7205C26.5899 21.7431 26.2358 22.1739 25.5879 22.8325C25.4788 22.9164 25.411 22.9691 25.411 22.9691C25.411 22.9691 25.4346 22.9599 25.4774 22.9441C24.7175 23.7074 23.5967 24.7424 22.2249 25.8009C21.7503 26.1671 21.2973 26.5161 20.8591 26.8456L21.9963 25.7615L19.1445 27.9241C19.1555 27.9065 19.1665 27.8881 19.1776 27.8708C17.1666 28.7959 14.9062 29.4037 12.7198 28.8686C10.9524 28.436 9.95794 27.6348 9.33394 26.9519C9.56972 26.3198 9.64798 25.651 9.50612 25.5888Z" fill="#9C5A26"/>
        <path d="M9.545 10.1334C9.31092 10.2278 8.96148 10.4304 8.57789 10.7122C8.58952 10.6974 8.60082 10.682 8.61251 10.6673C8.12978 10.3795 7.77133 9.98363 7.56508 9.75495C6.89794 9.01525 6.52757 8.06305 6.68896 7.94627C6.69416 7.94251 6.6997 7.93984 6.70556 7.93809C6.79584 8.18139 6.92689 8.45015 7.12179 8.71856C7.88586 9.77079 9.07035 10.0544 9.545 10.1334Z" fill="#9C5A26"/>
        <path d="M9.67219 10.1526L8.05145 11.4435C8.10366 11.3638 8.15689 11.2842 8.21223 11.2046C8.33075 11.0341 8.45301 10.8707 8.57767 10.7122C8.96126 10.4304 9.31069 10.2278 9.54477 10.1334C9.59586 10.1419 9.63896 10.1481 9.67219 10.1526Z" fill="#9C5A26"/>
        <path d="M9.75754 8.24299C10.5314 8.77385 11.5972 8.25758 11.6713 8.4915C11.7314 8.68141 11.0779 9.17697 10.3346 9.2727C9.91327 9.32697 9.54852 9.24174 9.29104 9.14756C8.81311 8.50886 8.54018 7.7316 8.50091 6.98255C8.43115 5.65207 9.09582 4.43703 9.38783 4.39652C9.25432 4.76541 8.96525 5.36359 8.98009 6.21767C8.98566 6.53783 9.00633 7.72764 9.75754 8.24299Z" fill="#9C5A26"/>
        <path d="M1.10315 24.6585C0.689521 22.4539 2.20197 20.0955 4.25483 19.6055C4.36652 19.5789 4.47694 19.5591 4.58623 19.5442C4.00535 19.8028 3.02045 20.2554 2.28055 21.2125C2.06424 21.4923 1.47298 22.2786 1.40292 23.4262C1.32143 24.7612 1.99886 25.7062 2.2013 25.9798C2.43662 26.2978 3.0761 27.065 4.21668 27.4405C5.30766 27.7996 6.23196 27.5945 6.60585 27.5065C7.63621 27.2639 8.3125 26.7302 8.44781 26.6207C8.57477 26.5179 8.68654 26.4151 8.78535 26.3163C8.87601 26.467 8.96828 26.615 9.06565 26.7608C7.89213 27.9058 5.94845 28.4449 4.29219 27.9924C2.81566 27.5891 1.42214 26.3586 1.10315 24.6585Z" fill="#9C5A26"/>
        <path d="M9.50617 25.5888C9.64803 25.6509 9.56977 26.3197 9.33399 26.9519C9.25761 26.8683 9.18645 26.7864 9.12044 26.7073C9.10251 26.7254 9.08379 26.743 9.06547 26.7609C8.9681 26.6151 8.87584 26.467 8.78517 26.3164C9.21104 25.8907 9.39506 25.5401 9.50617 25.5888Z" fill="#9C5A26"/>
        <path d="M26.8687 9.00323C26.7823 8.94415 26.6963 8.88729 26.6105 8.83144C26.6089 8.83029 26.6071 8.82895 26.6056 8.82781L26.5989 8.82399C26.1331 8.52144 25.6788 8.26566 25.2539 8.05114L25.2516 8.04982L25.2473 8.04784C24.8936 7.8695 24.5604 7.71929 24.2585 7.59426L23.5711 7.27893L22.928 7.05368C23.5371 7.10481 25.0843 7.34875 26.4412 8.36299C26.8344 8.65694 27.3326 9.10602 27.9691 9.0277C28.4756 8.96539 28.8207 8.59975 29.068 8.33775C29.9199 7.43525 30.0111 6.31068 30.0249 6.09357C30.1154 4.67032 29.3337 3.65769 29.0576 3.33677C28.2021 2.34271 27.1029 2.06573 26.6161 1.95023C26.0378 1.81301 25.4831 1.78113 24.973 1.8091C25.2291 1.75129 25.4889 1.71507 25.7482 1.70245C27.8461 1.6003 29.7047 3.03222 30.2454 4.89173C30.3063 5.10115 30.8003 6.91434 29.6384 8.52099C29.19 9.14102 28.5913 9.59613 27.9301 9.88956C27.8721 9.83885 27.8151 9.78989 27.7587 9.74169C27.5211 9.5156 27.2398 9.25684 26.8687 9.00323Z" fill="#9C5A26"/>
        <path d="M21.7064 29.2815C21.7052 29.2855 21.7041 29.2896 21.7029 29.2936C21.7017 29.1423 21.687 29.0637 21.6568 29.0577C21.6211 29.0505 21.5734 29.0968 21.5176 29.1847C21.2782 28.4546 21.1802 27.9913 21.2382 27.9671C21.3597 27.9164 22.1595 29.7254 24.0833 32.7737C24.8913 34.0539 25.4254 34.8046 26.3888 35.4637C26.6841 35.6658 27.6263 36.2742 28.9783 36.5253C29.2431 36.5745 29.5167 36.6086 29.7963 36.6271C30.0786 36.847 30.3877 37.0728 30.7191 37.2872C29.6957 37.3071 28.7466 37.6887 28.7136 37.9675C28.6953 38.1221 28.9626 38.2132 29.2723 38.4638C29.1426 38.4383 29.0106 38.4079 28.8777 38.3752L27.9316 38.0827C27.4046 37.8833 26.8707 37.6181 26.3529 37.265C25.3126 36.5557 24.7306 35.8681 23.9436 34.4954C23.628 33.7972 23.3266 32.9593 22.8671 31.8553C22.5693 31.1401 22.1871 30.2714 21.7064 29.2815Z" fill="#9C5A26"/>
        <path d="M19.909 41.7942C20.3758 41.1454 20.5404 41.1007 20.7193 40.5894C20.9361 39.9699 20.8255 39.208 20.676 38.8186C19.7606 36.434 20.129 33.8946 20.661 31.6743C20.9031 30.6641 21.2827 29.5542 21.5176 29.1847C21.5533 29.2936 21.5922 29.4085 21.6342 29.5288C21.2329 30.9298 20.9114 32.5944 20.9892 34.5424C21.0137 35.1576 21.0771 35.7681 21.1667 36.3567C21.1625 36.5145 21.166 36.6746 21.1873 36.8348C21.2275 37.1377 21.3231 37.5007 21.4738 37.9184C21.896 39.6689 22.4857 41.0071 22.8202 41.3105C22.8481 41.3358 22.9843 41.4537 22.9567 41.5627C22.8953 41.8058 22.0951 41.711 21.4407 41.8766C21.2822 41.9166 20.0413 42.341 19.6814 43.2041C19.6734 43.2232 19.6663 43.2408 19.658 43.2556C19.6535 43.2491 19.6485 43.243 19.6443 43.2364C19.3959 42.8413 19.6287 42.1838 19.909 41.7942Z" fill="#9C5A26"/>
        <path d="M21.657 29.0577C21.6872 29.0638 21.702 29.1424 21.7033 29.2938C21.6803 29.3713 21.6575 29.4497 21.635 29.5289C21.5929 29.4085 21.554 29.2936 21.5182 29.1846C21.5739 29.0968 21.6214 29.0504 21.657 29.0577Z" fill="#9C5A26"/>
        <path d="M22.693 6.97119L22.928 7.05389C22.7599 7.03958 22.6631 7.04003 22.662 7.04317C22.6805 7.02172 22.6891 6.9973 22.693 6.97119Z" fill="#C98146"/>
        <path d="M26.9836 21.3822C27.4782 20.6908 28.9964 18.7752 29.1141 16.2744C29.1521 15.4686 29.1594 13.0214 27.5264 10.717C25.6049 8.00556 22.6945 7.30079 21.2634 6.95424C17.447 6.03007 14.2219 7.12387 12.8983 7.66279C12.7006 7.72185 12.4065 7.79195 12.0461 7.81117C11.6846 7.83045 10.8882 7.87291 10.3701 7.4714C10.1912 7.33275 10.0446 7.13989 9.93475 6.91981C9.98047 6.97867 10.0308 7.03524 10.0868 7.0886C10.7692 7.73807 11.7034 7.41446 12.4571 7.62598C14.1464 6.80177 15.6532 6.53603 16.2018 6.43941C18.2231 6.08339 20.0208 6.26168 21.5041 6.62941C21.5482 6.68996 21.599 6.74828 21.6596 6.80215C21.9821 7.08866 22.5121 7.21574 22.6613 7.04325C22.6583 7.05182 23.3023 7.19838 24.2582 7.59427L25.247 8.04786C25.2493 8.04898 25.2514 8.05004 25.2537 8.05117L26.5987 8.82401C26.6026 8.82652 26.6064 8.82895 26.6103 8.83146C26.9076 9.04988 27.3059 9.3553 27.7584 9.74172C27.8781 9.85564 27.9875 9.96186 28.09 10.0537L28.1256 10.0627C28.8579 10.7289 29.4909 11.556 29.855 12.6384C30.5074 14.5778 29.9605 16.3311 29.5186 17.6832C29.1041 18.9511 28.5197 20.0651 27.8537 21.0404C27.8278 21.0529 27.8021 21.0662 27.776 21.078L26.9836 21.3822Z" fill="#C98146"/>
        <path d="M25.2541 8.05164C25.2517 8.05042 25.2494 8.04926 25.247 8.04804L25.2516 8.0502L25.2541 8.05164Z" fill="#C98146"/>
        <path d="M26.6105 8.83183C26.6066 8.82923 26.6027 8.82672 26.5987 8.82413L26.6055 8.82808C26.6071 8.82926 26.6089 8.83064 26.6105 8.83183Z" fill="#C98146"/>
        <path d="M23.5712 7.27904L24.2586 7.59436C23.3027 7.19847 22.6587 7.05191 22.6617 7.04334C22.6628 7.0402 22.7598 7.03965 22.9282 7.05378L23.5712 7.27904Z" fill="#C98146"/>
        <path d="M28.0903 10.0541C27.9878 9.96205 27.8786 9.85568 27.759 9.7416C27.8154 9.78987 27.8723 9.83891 27.9303 9.88969C27.9963 9.9461 28.0613 10.0042 28.1258 10.063L28.0903 10.0541Z" fill="#C98146"/>
        <path d="M22.0933 5.5632C22.2062 6.29554 22.7284 6.73253 22.6926 6.97126L22.4238 6.87712L21.5804 6.64856C21.6185 6.65822 21.6572 6.66743 21.6948 6.67733C21.5449 6.067 21.5059 5.34219 21.7592 4.57429C22.2248 3.16266 23.491 2.17631 24.8808 1.83278C24.5735 1.96726 24.1626 2.17964 23.7424 2.51705C23.5654 2.65923 21.8618 4.06166 22.0933 5.5632Z" fill="#C98146"/>
        <path d="M21.5805 6.64881C21.5554 6.64228 21.5302 6.63576 21.5049 6.62933C21.4909 6.60999 21.4776 6.59048 21.4651 6.57069L21.5399 6.63757L21.5805 6.64881Z" fill="#C98146"/>
        <path d="M22.424 6.87715L22.6928 6.97128C22.6888 6.99738 22.6802 7.0218 22.6616 7.04327C22.5124 7.21576 21.9824 7.08868 21.6599 6.80217C21.5993 6.7483 21.5485 6.68998 21.5044 6.62942C21.53 6.63574 21.5553 6.64215 21.5806 6.64859L22.424 6.87715Z" fill="#C98146"/>
        <path d="M17.5567 37.9157C17.2741 36.4661 16.7993 33.8613 17.8094 30.7581C18.1374 29.7506 18.5567 28.8914 18.9989 28.1588C19.5961 27.7763 20.2111 27.333 20.8594 26.8456L19.8898 27.7698C19.5435 28.3127 19.0924 29.102 18.6952 30.1053C17.4393 33.2781 17.7158 36.0843 17.8983 37.7399C18.0304 38.9383 18.3316 40.6094 19.0629 42.5171C18.5645 41.5062 17.8968 39.6604 17.5567 37.9157Z" fill="#C98146"/>
        <path d="M20.8589 26.8456C20.2106 27.333 19.5956 27.7763 18.9984 28.1588C19.0467 28.0788 19.0954 28.0011 19.1442 27.924L21.9961 25.7615L20.8589 26.8456Z" fill="#C98146"/>
        <path d="M30.9429 23.1694C29.3309 22.408 28.5457 22.3225 27.9078 22.3682C26.8925 22.4409 25.759 22.84 25.4774 22.9441C25.5151 22.9063 25.5521 22.869 25.588 22.8325C25.8869 22.6026 26.4985 22.1366 26.8956 21.863C27.1139 21.7126 27.533 21.4238 27.9415 21.165C29.6216 21.6528 31.9681 22.714 34.0833 24.6004C34.3934 24.877 34.755 25.1999 35.1305 25.5687C35.134 25.562 35.1378 25.5558 35.1413 25.5492L35.5687 26.2199C33.7404 24.6312 32.0743 23.7037 30.9429 23.1694Z" fill="#C98146"/>
        <path d="M25.4114 22.9689C25.4114 22.9689 25.479 22.9162 25.5879 22.8324C25.5521 22.8689 25.5152 22.9061 25.4777 22.9439C25.435 22.9597 25.4114 22.9689 25.4114 22.9689Z" fill="#C98146"/>
        <path d="M16.2015 13.1876C15.7004 13.0986 15.3659 13.6418 14.2116 14.3984C13.0569 15.1551 12.8208 14.9859 11.9241 15.5446C11.4977 15.8103 9.70158 16.9294 9.1656 19.0166C9.0626 19.4177 8.48315 20.9235 9.35099 22.3417C9.51595 22.6113 10.4696 23.9369 11.6744 24.1311C12.5085 24.2655 12.8734 23.9389 14.3297 23.4693C15.3606 23.1368 15.9495 23.4929 16.2927 23.6095C16.8336 23.7933 16.9792 23.9889 17.4439 24.2401C18.5883 24.8586 20.2498 25.0474 20.5672 24.5606C20.8693 24.0971 19.6853 23.433 18.8164 21.6576C17.9376 19.8619 18.4408 19.0944 17.4156 15.4029C17.0188 13.9742 16.7185 13.2795 16.2015 13.1876Z" fill="#9C5A26"/>
        <path d="M3.32856 24.6534C2.81134 24.2494 2.83217 23.4358 2.83967 23.143C2.8703 21.9468 3.76497 21.2268 3.88624 21.1325C4.11421 20.9551 4.73485 20.4723 5.58018 20.5716C5.73434 20.5897 6.61042 20.7111 7.00949 21.453C7.40909 22.1958 7.02807 22.9986 6.94371 23.1763C6.29472 24.5437 4.21305 25.3444 3.32856 24.6534Z" fill="#9C5A26"/>
        <path d="M23.1374 6.86081C22.8029 6.43114 22.7991 5.89276 22.7981 5.73984C22.7883 4.33934 24.2221 3.50712 24.2902 3.46895C24.4386 3.38575 25.7809 2.66299 27.0755 3.38287C28.1766 3.99512 28.7303 5.36563 28.3703 6.28211C27.7267 7.92069 24.1445 8.15406 23.1374 6.86081Z" fill="#9C5A26"/>
        <path d="M33.4176 35.5364C32.0481 36.2426 30.7543 36.5727 29.7499 36.5903C29.4104 36.3239 29.1107 36.0678 28.8608 35.8537C28.0242 35.1373 24.3979 32.1764 24.7984 28.4776C24.8738 27.7807 25.3739 26.5465 26.4086 25.8038C28.7276 24.1394 33.1883 27.3771 33.4157 27.5461C34.8368 28.6024 36.2989 30.2123 37.1791 31.8951C36.7397 32.925 35.5485 34.4377 33.4176 35.5364Z" fill="#F5B369"/>
        <path d="M37.7232 33.1705C37.0876 35.3153 35.5358 36.6383 35.3185 36.8178C34.5043 37.4902 33.6512 37.9021 32.8653 38.1532C32.7945 38.1758 32.7241 38.1976 32.6545 38.2177C31.9584 38.0081 31.3044 37.6657 30.7193 37.2874C30.3879 37.073 30.0788 36.8472 29.7966 36.6273C29.7807 36.615 29.7654 36.6028 29.7497 36.5904C30.7542 36.5728 32.0479 36.2427 33.4175 35.5366C35.5484 34.4378 36.7396 32.9251 37.1789 31.8953C37.1801 31.8975 37.1814 31.8997 37.1826 31.9019C37.4023 32.3228 37.5862 32.7481 37.7232 33.1705Z" fill="#E09D51"/>
        <path d="M8.10668 24.7853C8.16574 24.9531 8.31491 25.3769 8.11864 25.7639C8.02102 25.9564 7.86591 26.0846 7.65367 26.2105C6.6746 26.7914 5.722 26.8626 5.722 26.8626C5.29502 26.8269 4.13254 26.579 3.5287 25.6489C3.01942 24.8645 2.99131 23.6787 3.56309 23.1332C4.65241 22.094 7.68888 23.5983 8.10668 24.7853Z" fill="#C98146"/>
        <path d="M16.3298 13.0489C16.2292 12.3262 16.5821 11.6859 16.8217 11.2513C17.8653 9.35775 20.1042 9.0402 20.3262 9.01229C20.8167 8.95059 22.2695 8.76787 23.5197 9.75265C24.4836 10.5119 25.1138 11.8961 24.7756 13.0243C24.611 13.5732 24.4661 13.727 24.0953 14.8048C23.8435 15.5366 23.8495 15.903 23.88 16.1387C23.953 16.7017 24.2318 17.0236 24.4377 17.3546C25.194 18.5707 25.1392 20.189 24.7531 21.2554C24.461 22.0623 23.8159 23.0045 23.4778 22.9068C22.9536 22.7554 24.1691 20.3926 23.27 18.3391C21.8812 15.1672 16.6765 15.541 16.3298 13.0489Z" fill="#C98146"/>
        <path d="M27.494 4.63279C27.4168 5.92244 26.0745 6.57492 25.7537 6.73083C24.7995 7.19464 23.8218 7.1062 23.0883 6.90597C23.0643 6.88139 23.0408 6.85515 23.0181 6.82611C22.5616 6.24124 22.8017 5.25605 23.1138 4.68312C23.6544 3.6908 24.8778 3.07861 26.081 3.24321C26.5527 3.30772 26.9758 3.48626 27.3342 3.73776C27.4449 3.99954 27.5139 4.30013 27.494 4.63279Z" fill="#F5B369"/>
        <path d="M6.77624 23.8469C6.47803 24.3976 5.8412 25.0402 5.05388 25.0443C4.14462 25.049 3.48874 24.1997 3.22688 23.6006C3.05407 23.2052 3.00539 22.8101 3.01521 22.4516C3.04322 22.3764 3.07306 22.3022 3.10685 22.2303C3.2322 21.9639 3.68621 20.9987 4.76969 20.7338C6.01868 20.4284 6.80515 21.4238 6.87044 21.487C6.88276 21.6052 6.92069 21.7359 6.97195 21.8789C7.09904 22.4738 7.13609 23.1823 6.77624 23.8469Z" fill="#F5B369"/>
        <path d="M7.39376 22.9553C7.7633 24.0187 8.15013 24.2873 8.06581 24.8245C7.95044 25.5596 7.06601 26.0784 6.43371 26.2572C5.33854 26.5669 4.05436 26.1236 3.35189 25.1508C2.757 24.3269 2.70229 23.2926 3.01541 22.4516C3.00559 22.8101 3.05427 23.2052 3.22708 23.6006C3.48894 24.1997 4.14482 25.0489 5.05408 25.0442C5.8414 25.0402 6.47822 24.3976 6.77644 23.8468C7.13629 23.1823 7.09923 22.4738 6.97215 21.8789C7.07715 22.1719 7.243 22.5215 7.39376 22.9553Z" fill="#E09D51"/>
        <path d="M26.4958 2.65746L26.449 2.62082C26.4585 2.62803 26.4748 2.64058 26.4958 2.65746Z" fill="#E09D51"/>
        <path d="M9.05617 20.1448C9.04963 19.1668 9.44555 18.28 9.95578 17.5439C10.7197 16.4417 11.7403 15.6779 12.0533 15.456C13.2744 14.5898 13.7443 14.8533 14.8817 13.8945C16.3424 12.6632 16.1016 11.7781 17.2746 10.7045C17.507 10.4918 17.7748 10.2911 18.066 10.1089C19.5125 9.20347 21.5531 8.76168 22.89 9.6613C24.1858 10.5332 24.5203 12.4632 23.9661 13.8376C23.7435 14.3896 23.4975 14.5546 23.3873 15.1268C23.1677 16.2678 23.8973 16.9015 24.3227 17.7322C24.3267 17.74 24.3308 17.7476 24.3347 17.7554C24.6894 18.4608 24.864 19.404 24.8115 20.3468C24.7551 21.361 24.4359 22.3747 23.7923 23.0911C22.3654 24.6795 19.281 24.8809 17.5632 23.9726C16.583 23.4543 16.4588 22.792 15.3979 22.6811C14.0306 22.5381 13.4064 23.5514 12.126 23.5489C10.5581 23.5459 9.06872 22.0219 9.05617 20.1448Z" fill="#F5B369"/>
        <path d="M28.3169 7.27441C27.6654 8.37344 26.3338 8.44374 26.2419 8.44708C25.952 8.22732 25.4843 7.90694 24.8551 7.62536C23.8893 7.19307 23.4179 7.24327 23.0881 6.90599C23.8215 7.10621 24.7992 7.19465 25.7535 6.73084C26.0742 6.57493 27.4166 5.92246 27.4938 4.63281C27.5137 4.30014 27.4447 3.99955 27.334 3.73778C27.8192 4.07823 28.1853 4.55305 28.3874 5.06587C28.4944 5.33742 28.8821 6.32104 28.3169 7.27441Z" fill="#E09D51"/>
        <path d="M12.7609 17.885C11.9348 17.6651 11.2484 18 11.1059 18.0734C10.2168 18.5318 9.59361 19.5908 9.81259 20.6255C10.0153 21.5833 10.8375 22.0372 10.916 22.0788C11.5907 22.4371 12.2559 22.3299 12.5322 22.2628C13.4311 22.0446 14.4962 21.2115 14.4803 19.9956C14.4666 18.9479 13.6568 18.1235 12.7609 17.885Z" fill="#E09D51"/>
        <path d="M20.3786 10.4922C19.2671 10.6631 18.7446 11.6522 18.6861 11.7675C18.307 12.5151 18.2785 13.5797 18.9194 14.2698C19.4864 14.8805 20.2998 14.899 20.5266 14.9041C20.7448 14.9091 21.4972 14.9148 22.1413 14.3737C22.771 13.8445 23.1444 12.9209 22.8799 12.0345C22.5608 10.9652 21.4269 10.331 20.3786 10.4922Z" fill="#E09D51"/>
        <path d="M17.997 18.7352C17.7681 18.5707 17.4176 18.594 17.1941 18.7752C16.899 19.0146 16.8604 19.5014 17.1268 19.7842C17.3368 20.0071 17.7161 20.0819 17.9895 19.8999C18.2942 19.6971 18.2814 19.299 18.2257 19.0942C18.2071 19.0257 18.16 18.8523 17.997 18.7352Z" fill="#E09D51"/>
        <path d="M20.3397 16.9688C20.1109 16.8044 19.7603 16.8276 19.5369 17.0089C19.2417 17.2483 19.2031 17.735 19.4696 18.0178C19.6796 18.2407 20.0588 18.3156 20.3323 18.1336C20.637 17.9307 20.6241 17.5327 20.5685 17.3279C20.5499 17.2594 20.5028 17.0859 20.3397 16.9688Z" fill="#E09D51"/>
        <path d="M20.0018 19.9318C19.9391 19.9714 19.0378 20.56 18.9149 21.6003C18.8883 21.8254 18.8181 22.4195 19.2049 22.8296C19.6038 23.2524 20.2332 23.209 20.6133 23.1827C21.8622 23.0964 22.6151 22.1876 22.6631 22.1277C22.8089 21.9459 23.5555 21.015 23.2342 20.2997C22.8502 19.4447 21.0946 19.2419 20.0018 19.9318Z" fill="#E09D51"/>
        <path d="M19.2955 23.1429C18.7103 22.4118 19.0867 21.1516 20.1362 20.3282C21.1857 19.5047 22.5109 19.4299 23.0961 20.161C23.6814 20.8921 23.305 22.1523 22.2555 22.9757C21.206 23.7991 19.8808 23.874 19.2955 23.1429Z" fill="#B16A31"/>
        <path d="M20.3078 17.7613C19.9796 17.8873 19.6131 17.7279 19.4893 17.4052C19.3654 17.0826 19.5311 16.7189 19.8593 16.5929C20.1875 16.4669 20.554 16.6263 20.6779 16.949C20.8017 17.2716 20.6361 17.6353 20.3078 17.7613Z" fill="#B16A31"/>
        <path d="M17.9919 19.544C17.6637 19.67 17.2972 19.5106 17.1734 19.1879C17.0495 18.8653 17.2152 18.5016 17.5434 18.3756C17.8716 18.2496 18.2381 18.409 18.362 18.7317C18.4858 19.0543 18.3201 19.418 17.9919 19.544Z" fill="#B16A31"/>
        <path d="M18.4664 14.5576C17.6917 13.7015 17.8447 12.3167 18.8082 11.4644C19.7717 10.6121 21.1808 10.6151 21.9556 11.4711C22.7303 12.3272 22.5773 13.712 21.6138 14.5643C20.6503 15.4166 19.2412 15.4136 18.4664 14.5576Z" fill="#333333"/>
        <path d="M9.98793 22.0409C9.21318 21.1848 9.36618 19.7999 10.3297 18.9476C11.2932 18.0953 12.7023 18.0984 13.4771 18.9544C14.2518 19.8104 14.0988 21.1953 13.1353 22.0476C12.1718 22.8999 10.7627 22.8969 9.98793 22.0409Z" fill="#333333"/>
        <path d="M19.5065 12.158C19.3335 11.9418 19.432 11.5792 19.7266 11.348C20.0212 11.1169 20.4003 11.1048 20.5734 11.321C20.7464 11.5371 20.6479 11.8998 20.3533 12.1309C20.0587 12.3621 19.6796 12.3742 19.5065 12.158Z" fill="#F2F2F2"/>
        <path d="M19.9835 13.0127C19.8962 13.0462 19.7986 13.0035 19.7656 12.9174C19.7325 12.8313 19.7765 12.7344 19.8638 12.7008C19.9512 12.6673 20.0488 12.7099 20.0818 12.796C20.1149 12.8822 20.0709 12.9791 19.9835 13.0127Z" fill="#F2F2F2"/>
        <path d="M11.1447 19.6721C10.9717 19.456 11.0702 19.0933 11.3648 18.8622C11.6594 18.631 12.0385 18.6189 12.2116 18.8351C12.3846 19.0513 12.2861 19.4139 11.9915 19.6451C11.6969 19.8762 11.3178 19.8883 11.1447 19.6721Z" fill="#F2F2F2"/>
        <path d="M11.6217 20.5267C11.5344 20.5602 11.4368 20.5176 11.4038 20.4315C11.3707 20.3454 11.4147 20.2484 11.502 20.2149C11.5894 20.1814 11.687 20.224 11.72 20.3101C11.7531 20.3962 11.7091 20.4932 11.6217 20.5267Z" fill="#F2F2F2"/>
    </g>
    <defs>
        <clipPath id="clip0_497_40012">
            <rect width="32" height="32" rx="8" fill="white"/>
        </clipPath>
    </defs>
</svg>
