<svg width="335" height="145" viewBox="0 0 335 145" fill="none" xmlns="http://www.w3.org/2000/svg">
<path d="M241.146 151.699C236.924 129.53 222.816 99.6907 202.265 88.9103C199.734 87.5827 191.343 83.5212 181.567 75.7074C171.622 67.7591 166.65 63.785 164.493 57.7234C158.779 41.6667 177.372 29.2083 171.731 16.7651C167.429 7.27706 155.23 11.456 145.545 2.5346C128.19 -13.452 142.224 -50.0242 141.91 -65L95.8011 -4.18101C95.357 2.14532 96.3666 8.24958 100.234 12.7045C103 15.8916 106.38 17.2558 109.588 18.551C123.868 24.3151 133.526 16.3753 142.928 22.5189C147.894 25.7642 149.787 30.9779 150.36 32.5552C155.126 45.685 143.169 54.406 145.664 66.0273C148.112 77.4289 161.266 76.6919 169.514 86.6452C182.672 102.522 167.361 126.308 161.125 153.408L236.926 210.956C243.17 193.593 244.694 170.335 241.146 151.699Z" fill="#FAFAFA"/>
<path d="M145.66 66.3455C228.06 84.0654 257.395 183.443 261.762 230.917C267.315 263.38 222.244 261.412 206.829 249.647C189.635 236.524 145.556 218.936 130.313 253.084C115.07 287.232 -19.5203 291.441 -48.4633 283.709C-77.4063 275.978 -80.8518 246.233 -73.6872 214.643C-66.5227 183.052 -68.2007 174.063 -77.7803 130.12C-87.3599 86.1785 -32.2263 25.1708 14.738 28.6567C61.7023 32.1425 42.6589 44.1957 145.66 66.3455Z" fill="#E4D9FF"/>
<path opacity="0.1" d="M151.686 53.4171C240.69 72.5656 272.366 179.996 277.079 231.318C283.075 266.412 234.39 264.289 217.741 251.571C199.17 237.386 151.56 218.377 135.092 255.294C118.623 292.212 -26.7553 296.775 -58.0175 288.419C-89.2796 280.064 -92.9985 247.908 -85.2567 213.756C-77.5148 179.605 -79.3265 169.886 -89.6698 122.383C-100.013 74.8798 -40.4546 8.92151 10.2739 12.6855C61.0023 16.4495 40.4313 29.4815 151.686 53.4171Z" fill="#DCDCDC"/>
<path d="M141.777 69.7387C217.474 86.0346 244.405 177.51 248.408 221.211C253.503 251.093 217.79 249.745 203.86 238.594C188.938 226.65 141.653 210.204 127.642 241.642C113.632 273.08 -10.0159 276.98 -36.6041 269.868C-63.1922 262.757 -66.3519 235.376 -59.7638 206.294C-53.1756 177.213 -54.7155 168.938 -63.5077 128.489C-72.3 88.0406 -21.6375 31.8699 21.5076 35.0698C64.6526 38.2696 47.1553 49.3687 141.777 69.7387Z" fill="#492D60"/>
<path d="M75.6482 116.828C62.8895 119.499 43.8452 118.595 33.5316 110.016C32.2615 108.96 28.2318 105.381 21.8937 101.897C15.4465 98.3532 12.2229 96.5812 8.51167 96.776C-1.31923 97.292 -3.83173 109.987 -11.7197 109.739C-17.7343 109.55 -18.2162 102.108 -25.1247 98.9187C-37.5041 93.2035 -53.8869 108.822 -61.942 111.981L-39.756 73.8496C-36.4815 72.2071 -33.0023 71.3901 -29.7679 72.4653C-27.4539 73.2345 -25.9757 74.7359 -24.5724 76.1615C-18.3267 82.5057 -20.4146 89.4267 -15.0503 93.0818C-12.2166 95.0127 -9.01618 94.8651 -8.04794 94.8205C0.0117986 94.4488 2.00559 86.1267 8.75645 84.8774C15.3797 83.6517 17.9088 90.8389 25.0483 93.0321C36.4372 96.5307 63.3597 66.8119 76.4245 57.4619L138.925 72.6096C131.054 79.8007 86.3733 114.583 75.6482 116.828Z" fill="#9669BE"/>
<path d="M137.431 149.965C133.333 143.143 130.03 131.976 132.896 124.301C133.249 123.355 134.5 120.311 135.233 115.954C135.978 111.522 136.351 109.306 135.493 107.204C133.223 101.637 125.412 102.742 123.971 98.1425C122.872 94.635 127.059 92.8597 127.507 88.233C128.311 79.9423 116.033 73.6344 112.598 69.6235L138.998 74.7494C140.601 76.3079 141.769 78.1503 141.8 80.2324C141.822 81.7219 141.254 82.8767 140.716 83.973C138.318 88.8521 133.916 89.0402 132.889 92.8699C132.347 94.8929 133.074 96.7093 133.294 97.2589C135.126 101.833 140.316 101.309 142.391 104.952C144.426 108.526 140.797 111.43 140.968 115.99C141.241 123.263 183.873 147.039 191.877 152.694L152.46 164.549C146.741 161.455 140.877 155.7 137.431 149.965Z" fill="#FFF2D9"/>
<path d="M44.029 42.8624C38.4975 41.1684 31.8174 39.9116 21.2256 39.126C1.39537 37.6552 -20.9328 49.9258 -37.4604 68.1439C-54.0162 86.393 -63.5301 109.247 -59.5338 127.625C-55.1594 147.743 -52.4907 160.266 -51.8065 171.406C-51.1114 182.723 -52.4642 192.493 -55.7949 207.193C-59.022 221.437 -59.7312 234.77 -56.7153 245.19C-53.8286 255.162 -47.5394 262.553 -36.0924 265.79L-35.5436 265.942C-29.4352 267.576 -17.1708 268.672 -1.63705 268.816C13.7623 268.958 31.9897 268.162 49.8164 266.174C67.675 264.182 84.9629 261.011 98.5605 256.464C105.36 254.19 111.098 251.618 115.485 248.768C119.9 245.9 122.665 242.936 123.978 239.991C132.006 221.98 149.795 217.584 165.94 218.975C174.075 219.676 182.107 221.838 188.932 224.671C195.686 227.475 201.591 231.075 205.236 234.869C207.673 237.405 211.68 239.568 216.515 240.84C221.311 242.102 226.56 242.389 231.216 241.514C235.884 240.636 239.639 238.662 241.976 235.7C244.241 232.828 245.6 228.485 244.477 221.903C244.46 221.8 244.446 221.695 244.437 221.591C242.475 200.186 234.866 166.954 218.484 137.164C202.111 107.389 177.263 81.5307 140.969 73.7185C93.402 63.4796 73.8454 55.5298 60.7134 49.6828C54.1491 46.7601 49.6333 44.5787 44.029 42.8624Z" stroke="#382249" stroke-width="8.13156" stroke-linecap="round" stroke-linejoin="round"/>
<g filter="url(#filter0_d_377_8175)">
<path d="M236.649 53.2371C236.687 52.921 237.145 52.921 237.183 53.2371L237.498 55.8887C237.904 59.3127 240.603 62.0122 244.027 62.4185L246.679 62.7331C246.995 62.7707 246.995 63.2293 246.679 63.2669L244.027 63.5815C240.603 63.9878 237.904 66.6873 237.498 70.1113L237.183 72.7629C237.145 73.079 236.687 73.079 236.649 72.7629L236.335 70.1113C235.928 66.6873 233.229 63.9878 229.805 63.5815L227.153 63.2669C226.837 63.2293 226.837 62.7707 227.153 62.7331L229.805 62.4185C233.229 62.0122 235.928 59.3127 236.335 55.8887L236.649 53.2371Z" fill="#FDCB40"/>
</g>
<g filter="url(#filter1_d_377_8175)">
<path d="M219.243 79.1541C219.267 78.9486 219.565 78.9486 219.589 79.1541L219.794 80.8777C220.058 83.1032 221.813 84.858 224.038 85.122L225.762 85.3265C225.967 85.3509 225.967 85.6491 225.762 85.6735L224.038 85.878C221.813 86.142 220.058 87.8968 219.794 90.1223L219.589 91.8459C219.565 92.0514 219.267 92.0514 219.243 91.8459L219.038 90.1223C218.774 87.8968 217.019 86.142 214.794 85.878L213.07 85.6735C212.865 85.6491 212.865 85.3509 213.07 85.3265L214.794 85.122C217.019 84.858 218.774 83.1032 219.038 80.8777L219.243 79.1541Z" fill="#FDCB40"/>
</g>
<g filter="url(#filter2_d_377_8175)">
<path d="M0.027708 79.265C0.0870773 79.5407 0.491654 79.5026 0.498507 79.2207L0.555753 76.8556C0.629673 73.8016 2.78665 71.1961 5.77313 70.5532L8.08598 70.0554C8.36171 69.9961 8.3236 69.5915 8.04164 69.5846L5.67652 69.5274C2.62254 69.4535 0.0170303 67.2965 -0.625778 64.31L-1.12359 61.9972C-1.18296 61.7214 -1.58754 61.7595 -1.59439 62.0415L-1.65163 64.4066C-1.72556 67.4606 -3.88254 70.0661 -6.86904 70.7089L-9.18189 71.2067C-9.45758 71.2661 -9.41948 71.6707 -9.13755 71.6775L-6.77243 71.7348C-3.71842 71.8087 -1.11291 73.9657 -0.470104 76.9522L0.027708 79.265Z" fill="#FDCB40"/>
</g>
<g filter="url(#filter3_d_377_8175)">
<path d="M18.1458 94.2547C18.1814 94.4202 18.4242 94.3973 18.4283 94.2281L18.4627 92.8091C18.507 90.9767 19.8012 89.4134 21.5931 89.0277L22.9808 88.729C23.1462 88.6934 23.1234 88.4506 22.9542 88.4465L21.5351 88.4122C19.7027 88.3678 18.1394 87.0736 17.7537 85.2817L17.455 83.894C17.4194 83.7286 17.1767 83.7514 17.1726 83.9206L17.1382 85.3397C17.0939 87.1721 15.7997 88.7354 14.0078 89.1211L12.6201 89.4198C12.4546 89.4554 12.4775 89.6981 12.6467 89.7022L14.0657 89.7366C15.8981 89.7809 17.4615 91.0751 17.8471 92.867L18.1458 94.2547Z" fill="#FDCB40"/>
</g>
<g filter="url(#filter4_d_377_8175)">
<path d="M84.9755 82.8604C84.9439 82.7134 84.7281 82.7337 84.7244 82.884L84.6939 84.1454C84.6545 85.7742 83.5041 87.1638 81.9113 87.5067L80.6778 87.7722C80.5307 87.8038 80.551 88.0196 80.7014 88.0233L81.9628 88.0538C83.5916 88.0932 84.9812 89.2436 85.324 90.8364L85.5895 92.0699C85.6212 92.217 85.837 92.1967 85.8406 92.0463L85.8712 90.7849C85.9106 89.1561 87.061 87.7665 88.6538 87.4237L89.8873 87.1582C90.0343 87.1265 90.014 86.9107 89.8637 86.9071L88.6023 86.8765C86.9735 86.8371 85.5839 85.6867 85.241 84.0939L84.9755 82.8604Z" fill="#FDCB40"/>
</g>
<g filter="url(#filter5_d_377_8175)">
<path d="M100.321 76.0476C100.297 75.9373 100.135 75.9525 100.132 76.0653L100.11 77.0114C100.08 78.233 99.2172 79.2752 98.0226 79.5323L97.0974 79.7314C96.9872 79.7552 97.0024 79.917 97.1152 79.9197L98.0612 79.9426C99.2828 79.9722 100.325 80.835 100.582 82.0296L100.781 82.9547C100.805 83.065 100.967 83.0498 100.97 82.937L100.992 81.9909C101.022 80.7693 101.885 79.7271 103.079 79.47L104.005 79.2709C104.115 79.2471 104.1 79.0853 103.987 79.0826L103.041 79.0597C101.819 79.0301 100.777 78.1673 100.52 76.9727L100.321 76.0476Z" fill="#FDCB40"/>
</g>
<path d="M29.6828 170.787C30.1052 170.954 30.5276 171.121 30.95 171.289C32.2181 171.868 33.2884 172.736 34.3506 173.622C36.8838 175.734 38.6907 178.436 40.3635 181.226C41.7397 183.514 43.5045 185.541 45.5773 187.214C46.8154 188.194 47.9179 189.337 48.8557 190.612C51.2352 193.933 54.6573 195.315 58.5274 195.842C59.3044 195.948 60.0759 195.766 60.8453 195.691C61.7509 195.603 62.6455 195.512 63.5411 195.74C63.5833 195.75 63.6271 195.749 63.6692 195.739C63.7112 195.729 63.7504 195.709 63.7837 195.682C63.8 195.016 63.6729 194.355 63.4112 193.744C63.1495 193.133 62.7594 192.587 62.2677 192.142C60.9017 190.775 59.3941 189.559 57.7709 188.516C56.287 187.606 54.8332 186.736 53.7213 185.373C53.5513 185.177 53.3616 184.999 53.1552 184.842C51.8835 183.998 51.3926 182.718 51.3445 181.279C51.2463 178.346 51.8567 175.615 53.6465 173.19C54.5296 171.993 55.2284 170.656 56.2097 169.525C57.7043 167.802 59.4572 166.365 61.2506 164.977C62.9303 163.678 64.5229 162.29 65.7801 160.556C66.8239 159.167 67.571 157.576 67.9741 155.883C68.2342 154.721 68.6427 153.593 68.7435 152.396C68.5668 150.791 68.3902 149.186 68.2135 147.581C68.0653 147.4 68.0336 147.144 67.8387 146.993C66.7682 145.857 65.5445 144.879 64.2036 144.086C62.6587 143.139 61.0508 142.304 59.5401 141.29C57.7374 140.08 55.6952 139.34 53.6727 138.582C52.2768 138.063 50.9113 137.465 49.5827 136.79C46.6426 135.288 44.8768 132.924 44.3676 129.635C43.9353 126.841 44.3589 124.145 45.3008 121.508C45.8345 120.014 46.5185 118.586 47.1888 117.153C48.0663 115.311 48.5662 113.31 48.659 111.269C48.7843 108.511 48.6886 105.757 48.7546 103.003C48.8107 99.4605 49.3482 95.9426 50.3521 92.5471C50.7921 91.0956 51.1739 89.6217 51.916 88.2842C52.1209 87.9053 52.2584 87.4932 52.3224 87.0666C52.392 86.684 52.5177 86.3139 52.6956 85.9686C52.7873 85.7589 52.9504 85.589 53.1555 85.4896C53.3605 85.3902 53.594 85.3678 53.8141 85.4264C54.1177 85.4934 54.4353 85.6335 54.7504 85.4454C54.8482 85.0805 54.5551 85.0067 54.3316 84.915C54.2647 84.8941 54.2027 84.86 54.1492 84.8146C54.0956 84.7692 54.0516 84.7135 54.0198 84.6508C53.9879 84.588 53.9688 84.5195 53.9636 84.4493C53.9584 84.379 53.9672 84.3084 53.9895 84.2416C54.2581 82.6665 55.0098 81.2156 56.139 80.0926C56.5959 79.6855 57.1699 79.4359 57.7775 79.3801C58.1953 79.3095 58.4449 79.4756 58.4445 79.9362C58.444 80.5866 58.512 81.2447 58.3116 81.8773C57.1164 85.6493 58.5428 88.7504 60.7602 91.6556C61.3432 92.4195 62.0816 93.022 62.7784 93.667C63.3022 94.1518 63.8447 94.585 64.6016 94.7031C64.8815 94.7569 65.1434 94.8811 65.3628 95.0642C65.5823 95.2473 65.7522 95.4833 65.8567 95.7502C66.5433 97.3575 67.5997 98.7406 68.4461 100.249C68.8418 101.019 69.1978 101.809 69.5126 102.616C70.5152 103.761 71.5178 104.906 72.5718 106.11C73.128 105.292 73.6987 104.469 74.2529 103.635C75.2282 102.168 76.1936 100.693 77.1631 99.2217C77.1151 99.1742 77.0523 99.1448 76.9853 99.1386C76.7934 99.1639 76.6036 99.203 76.4172 99.2555C75.5497 99.3723 75.0147 98.7025 75.3069 97.8639C75.3651 97.7 75.4405 97.5429 75.5319 97.3952C75.6661 97.1953 75.7323 96.957 75.7205 96.716C75.7087 96.475 75.6195 96.2444 75.4663 96.0588C74.6362 94.8134 73.9548 93.4736 73.4364 92.0674C73.2586 91.6718 73.0528 91.2896 72.8207 90.9236C72.54 90.4381 72.4671 89.9459 72.8134 89.4562C72.9128 89.3132 72.9736 89.1467 72.9898 88.973C73.0061 88.7992 72.9772 88.6242 72.9061 88.465C71.9621 85.827 71.7053 83.0483 71.2691 80.3067C71.1805 79.7497 71.1416 79.185 71.0543 78.6275C70.9884 78.3713 71.0146 78.0999 71.1282 77.8613C71.2417 77.6226 71.4354 77.432 71.6749 77.3231C71.8702 77.2323 72.0352 77.0864 72.1499 76.9032C72.2646 76.72 72.3242 76.5072 72.3214 76.2906C72.3562 75.3968 72.6953 74.5421 73.2816 73.8701C73.7526 73.3496 73.955 72.5963 74.098 71.8678C73.9468 71.8461 71.2435 72.2804 71.2018 72.3176C69.1811 74.0206 67.4237 76.0173 65.9876 78.242C65.8916 78.3867 65.7787 78.5193 65.6512 78.6368C65.5283 78.7771 65.364 78.874 65.1823 78.9133C65.0007 78.9527 64.8114 78.9324 64.642 78.8556C64.4618 78.7769 64.309 78.646 64.2031 78.4794C64.0973 78.3129 64.0431 78.1183 64.0476 77.9206C64.0501 77.636 64.1301 77.3576 64.2791 77.1158C64.8635 76.0546 65.4276 75.01 66.4766 74.2732C67.3333 73.6714 67.9752 72.7835 68.9016 72.2354C70.0144 71.5219 71.2588 71.0419 72.5603 70.8244C72.9222 70.7667 73.2905 70.7615 73.6539 70.809C73.9294 70.8505 74.2201 70.8978 74.4161 70.6043C74.5245 70.2732 74.5597 69.9223 74.5191 69.576C74.5176 69.0125 74.5799 68.4506 74.7048 67.9012C74.8506 67.2071 75.2153 66.7029 75.9086 66.5143C76.4142 66.3767 76.5738 66.059 76.5975 65.5643C76.6383 64.7134 76.4499 63.8822 76.4359 63.0409C76.4909 62.1604 76.0727 61.4068 75.7892 60.6129C74.8027 57.8506 73.0182 55.6216 71.0504 53.5392C69.4688 51.8655 67.5848 50.5418 65.6752 49.274C65.03 48.8458 64.2438 48.6718 63.5591 48.3027C62.5005 47.7143 61.4987 47.0279 60.5667 46.2522C60.1077 46.0248 59.6484 45.8285 59.1572 46.1639C56.5652 49.6824 52.775 51.5995 49.1617 53.7549C48.555 54.1168 47.972 54.5189 47.378 54.9024C46.2606 55.6506 45.3603 56.6537 44.3527 57.5304C41.9257 59.6421 39.4905 61.7433 37.0223 63.806C34.1402 66.2146 31.2698 68.6364 28.4675 71.1402C26.7132 72.7077 24.9868 74.3068 23.2055 75.8435C22.9587 76.0564 22.7771 76.3294 22.5375 76.5478C21.1576 79.0151 19.7496 81.4671 18.4113 83.957C17.8525 84.9967 17.4417 86.117 16.9637 87.2007C14.3925 93.8809 12.5305 100.816 11.4088 107.891C10.8203 111.533 10.4633 115.205 10.1279 118.879C9.88734 121.513 9.60619 124.145 9.41697 126.784C9.29143 128.535 9.15151 130.285 9.0962 132.042C9.04503 133.668 8.92374 135.293 8.98701 136.919C9.08557 139.453 9.19927 141.986 9.32811 144.519C9.47745 147.463 9.77467 150.408 9.61286 153.359C9.46741 156.012 9.1407 158.637 7.83752 161.028C6.97859 162.605 5.74328 163.888 4.63213 165.268C4.40782 165.56 4.15798 165.831 3.88561 166.078L3.89223 166.073C3.82184 166.149 3.84347 166.273 3.75726 166.341L3.76367 166.333C3.75807 166.344 3.7496 166.354 3.73907 166.362C3.72855 166.369 3.71633 166.373 3.70361 166.374C3.69087 166.376 3.67807 166.373 3.66642 166.368C3.65478 166.363 3.64468 166.355 3.63711 166.344C-1.16344 171.728 -7.32738 174.994 -13.8409 177.694C-21.2867 180.781 -29.0718 182.741 -36.8791 184.617C-37.0996 184.686 -37.315 184.771 -37.5238 184.87C-37.6301 185.352 -37.2387 185.274 -37.0015 185.305C-35.5911 185.489 -34.1714 185.581 -32.7548 185.702C-27.5094 186.151 -22.251 186.171 -16.9939 186.095C-10.3029 185.998 -3.78634 184.913 2.48655 182.477C5.70666 181.226 8.90759 179.939 12.0027 178.397C15.0119 176.897 17.7366 174.953 20.4325 172.959C21.7364 171.995 23.0858 171.103 24.6576 170.607C25.6081 170.308 26.6155 170.239 27.5975 170.407C28.293 170.521 29.0089 170.546 29.6828 170.787Z" fill="#FFE4C0"/>
<path d="M102.492 27.5556C102.824 25.7728 103.182 23.9946 103.48 22.2062C103.838 20.0608 104.195 17.8787 102.816 15.9432C102.375 15.3242 101.684 14.8859 101.107 14.3649C100.769 14.1753 100.391 14.0664 100.004 14.0466C96.3908 13.8494 92.9899 14.5111 89.9345 16.5729C89.6858 16.7832 89.3803 16.9137 89.0573 16.9475C88.8136 16.9495 88.695 16.7401 88.5431 16.5921C86.3263 16.1206 84.1289 15.4808 81.8879 15.2178C78.6823 14.8414 75.4447 14.7405 72.2207 14.522C71.2129 14.7403 70.1987 14.9256 69.1841 15.1077C68.5277 15.2255 67.8674 15.3228 67.2209 15.4884C65.3271 15.8582 63.516 16.446 61.8831 17.5187C61.6083 17.6992 61.4319 17.9769 61.1627 18.1547C60.8466 18.8973 60.5305 19.6398 60.2144 20.3824C60.4409 20.5335 60.624 20.3792 60.8125 20.2911C62.2598 19.614 63.6258 19.7697 64.8582 20.7714C66.2088 21.8992 67.1806 23.4196 67.6405 25.1246C67.7578 25.5204 67.7867 25.9374 67.725 26.3457C67.688 26.5999 67.6247 26.8639 67.8357 27.0844C68.0147 27.1929 68.225 27.2371 68.4322 27.2097C70.1524 27.2282 71.8404 27.6816 73.3411 28.5284C73.889 28.8275 74.2046 29.359 74.6664 29.7406C75.0398 29.8563 75.4358 29.8771 75.8192 29.8012C77.3639 29.592 78.9354 29.7219 80.4255 30.1821C82.5438 30.7669 84.6983 31.2716 86.6214 32.4045C88.2175 33.3449 89.5389 34.586 90.3217 36.2954C90.8587 37.4678 91.6591 38.4696 92.2512 39.6046C93.1669 41.3828 93.7305 43.3232 93.9106 45.318C94.0645 46.6565 94.3659 47.9736 94.8092 49.2449C94.8943 49.5017 94.9379 49.8118 95.282 49.8851C95.6178 49.7942 95.6648 49.4909 95.7241 49.226C96.1103 47.4851 96.9104 45.8647 98.0557 44.5039C99.4847 42.7842 99.8518 40.6961 99.8711 38.5349C99.8463 36.5412 100.061 34.5518 100.51 32.6099C100.678 31.8242 100.963 31.0687 101.356 30.3691C101.893 29.4906 102.092 28.4842 102.492 27.5556Z" fill="#FFE4C0"/>
<path d="M77.0293 99.219L77.1625 99.2217C77.9322 98.1856 78.7512 97.1826 79.4627 96.1076C82.2752 91.858 85.1447 87.6426 87.8207 83.3067C90.6654 78.6975 92.7353 73.735 93.6862 68.3535C94.0652 66.2084 94.3378 64.0425 94.775 61.9103C95.0687 60.4781 95.5942 59.0958 95.9632 57.6772C96.2126 56.7183 96.3702 55.7352 96.5688 54.7629C96.6366 53.6315 96.3214 52.5577 96.0693 51.4763C96.0387 51.317 95.9688 51.1679 95.8662 51.0427C95.7635 50.9175 95.6313 50.8203 95.4817 50.7599C95.1107 50.6557 94.8722 50.8625 94.647 51.1166C94.0547 51.8099 93.6021 52.6127 93.3145 53.4802C92.6937 55.2211 92.3165 57.0299 91.827 58.8076C90.669 63.0129 89.4982 67.2148 87.8183 71.251C86.969 73.2916 85.9458 75.2096 84.2781 76.7109C83.7711 77.1827 83.212 77.5941 82.6116 77.9371C82.4016 78.0763 82.1475 78.1317 81.8991 78.0926C81.6506 78.0534 81.4256 77.9224 81.2679 77.7251C81.0975 77.5588 80.945 77.3749 80.8128 77.1764C80.0575 75.9601 79.4417 74.6615 78.9772 73.3054C78.6445 72.3227 78.7914 71.2813 78.6611 70.2703C78.3503 67.8601 77.5642 65.5847 76.8219 63.295C76.7438 63.054 76.6645 62.7129 76.2567 62.8506C76.2972 63.8005 76.3504 64.7501 76.3669 65.7004C76.37 65.877 76.2457 66.1986 76.1463 66.2128C74.5243 66.4446 74.4686 67.7381 74.3176 68.9389C74.2731 69.5228 74.2604 70.1088 74.2796 70.6941C74.1949 70.8073 74.135 70.9374 74.1038 71.0756C74.0726 71.2139 74.0708 71.3572 74.0985 71.4962C74.2333 73.1804 74.3054 74.8772 75.0775 76.4357C75.2255 76.7535 75.269 77.1105 75.2016 77.4548C75.1344 77.8399 75.1097 78.2312 75.1279 78.6217C75.1635 79.2472 75.1211 79.7987 74.5168 80.2077C74.0935 80.4941 74.1471 81.0018 74.2492 81.4657C74.5147 82.6727 74.8548 83.8617 75.0951 85.0752C75.2839 85.8775 75.3855 86.698 75.398 87.5224C75.5734 88.8477 75.4102 90.1915 75.6433 91.5168C75.6824 91.8056 75.7891 92.0808 75.9546 92.3199C76.1202 92.5589 76.3397 92.755 76.5953 92.8918C76.7449 92.9724 76.8687 93.0943 76.9519 93.2433C77.0351 93.3922 77.0743 93.562 77.065 93.7326C77.122 94.6852 76.9234 95.6245 76.9527 96.5741C76.8408 97.1196 76.7636 97.6716 76.7217 98.227C76.6778 98.5943 76.6986 98.9604 77.0293 99.219Z" fill="#EBEBEB"/>
<path d="M67.8339 147.178C67.9605 147.312 68.087 147.446 68.2135 147.58C67.6332 145.144 67.0754 142.701 66.4671 140.272C65.6959 137.191 64.6957 134.156 64.1392 131.038C63.5184 127.56 64.1203 124.105 65.1703 120.738C66.4837 116.527 68.5776 112.699 70.7916 108.924C70.8688 108.773 70.9131 108.607 70.9218 108.437C70.9304 108.268 70.9031 108.098 70.8417 107.94C70.1232 106.515 69.5895 104.868 68.509 103.786C67.2293 102.506 66.4738 100.992 65.5525 99.5285C65.4362 99.3517 65.2832 99.2022 65.1041 99.0904C64.9251 98.9786 64.7241 98.9071 64.515 98.8808C63.7986 98.9006 63.6285 98.4873 63.3071 97.9925C62.6083 96.8786 61.8139 95.8283 60.9332 94.8538C59.762 93.6008 58.4252 92.506 57.2176 91.285C56.8716 90.9318 56.6559 90.4701 56.6064 89.9765C56.5726 89.1614 56.1696 88.6706 55.6214 88.1726C55.4367 88.0048 55.4443 87.6224 55.3639 87.3381C55.5997 87.2828 55.8422 87.2618 56.0839 87.2759C56.3875 87.3623 56.6828 87.476 56.9662 87.6156C57.0142 87.179 56.6686 87.0144 56.3885 86.8543C55.9416 86.6467 55.5866 86.2802 55.3917 85.8253C55.361 85.6861 55.2782 85.5641 55.1606 85.4848C55.0429 85.4054 54.8994 85.3747 54.7599 85.399C53.8587 85.2715 52.8332 84.7407 52.3938 86.1262C52.2711 86.513 52.1711 86.9069 52.0551 87.2958C51.9705 87.5793 51.8767 87.86 51.787 88.142C51.42 91.639 52.2826 94.8424 54.0335 97.8472C54.9802 99.4718 56.2107 100.87 57.4641 102.24C59.2537 104.197 60.7117 106.402 62.2723 108.531C62.7589 109.194 63.2378 109.866 63.7745 110.488C64.5603 111.397 64.6715 112.427 64.4186 113.539C64.2089 114.494 63.8709 115.416 63.4142 116.279C62.4396 118.075 61.8281 120.048 61.615 122.084C61.5144 122.947 61.5048 123.818 61.5864 124.683C61.9341 127.932 62.5353 131.12 63.8984 134.122C65.0144 136.58 65.6178 139.212 66.3754 141.79C66.8217 143.309 67.2132 144.845 67.5106 146.403C67.5748 146.677 67.6841 146.939 67.8339 147.178Z" fill="#EBEBEB"/>
<path d="M3.88527 166.078C4.62167 165.34 5.38431 164.625 6.08974 163.858C8.54484 161.187 9.64153 157.957 9.70699 154.379C9.75555 151.723 9.66209 149.065 9.59008 146.408C9.54203 144.636 9.39527 142.867 9.33828 141.094C9.26796 138.907 9.14419 136.714 9.22519 134.53C9.34604 131.271 9.59973 128.016 9.84522 124.763C10.0727 121.749 10.249 118.725 10.6528 115.733C11.2874 111.031 11.8579 106.299 12.8939 101.679C13.9472 96.9812 15.532 92.4045 16.8793 87.7736C16.9208 87.5849 16.9489 87.3936 16.9634 87.2009C16.2198 88.9727 15.4195 90.723 14.7428 92.5205C12.0051 99.6886 9.96215 107.106 8.6425 114.67C7.9402 118.804 7.42693 122.979 7.03706 127.155C6.72725 130.501 6.58947 133.861 6.62425 137.221C6.67266 142.178 6.95821 147.133 7.10624 152.089C7.22833 156.178 7.31066 160.272 5.1957 163.998C4.79137 164.71 4.32371 165.386 3.88527 166.078Z" fill="#EDCC9E"/>
<path d="M59.1571 46.1638L60.5919 46.4361C60.8144 46.5705 61.0611 46.6593 61.3177 46.6974C64.9369 47.4207 68.4335 48.6431 72.0555 49.3561C73.7062 49.6752 75.3794 49.8625 77.0594 49.9163C78.1357 49.9549 79.2086 50.075 80.2749 49.8371C80.6641 49.7502 81.1061 49.7497 81.3174 49.2666C81.1561 48.9217 80.8095 48.9137 80.5087 48.8426C78.9967 48.485 77.4595 48.2572 75.938 47.9474C74.5841 47.6717 73.2551 47.3006 71.9184 46.956C70.5111 46.5931 69.3249 45.7985 68.0886 45.0959C66.0168 43.8873 64.0692 42.4748 62.2745 40.8791C61.1143 39.8641 60.2826 38.5225 59.8866 37.0272C59.0203 34.0234 58.46 30.9895 58.7969 27.844C58.8169 27.7481 58.8179 27.6491 58.7999 27.5528C58.7819 27.4564 58.7452 27.3646 58.6919 27.2826C58.6529 27.2437 58.6009 27.2209 58.546 27.2187C58.4912 27.2165 58.4375 27.2351 58.3956 27.2708C57.8718 31.4093 58.35 35.4535 59.4946 39.4416C60.1468 41.7142 60.435 43.9826 59.1571 46.1638Z" fill="#EBEBEB"/>
<path d="M22.5373 76.5479C23.3305 75.8975 24.1394 75.2655 24.9143 74.5937C28.7177 71.2961 32.5161 67.9927 36.3095 64.6834C39.5227 61.8868 42.7344 59.0885 45.9446 56.2885C46.4441 55.8517 46.9013 55.3658 47.3779 54.9026C46.1435 55.5499 44.8562 56.1134 43.6849 56.8611C40.6539 58.796 37.5875 60.6929 34.6947 62.8246C30.6389 65.8132 27.3147 69.5649 24.4013 73.6793C23.743 74.609 23.1568 75.5903 22.5373 76.5479Z" fill="#FFF1DE"/>
<path d="M54.7596 85.399C54.976 85.7026 55.1721 86.0242 55.4157 86.3038C55.6136 86.498 55.8259 86.6767 56.0508 86.8383C56.3571 87.0959 56.6609 87.3565 56.9659 87.6157C57.179 87.9325 57.4119 88.2378 57.6016 88.5682C58.2854 89.7599 58.7673 91.131 59.6631 92.1263C62.8714 95.6912 66.2179 99.1298 69.5122 102.616C69.1381 101.655 68.8379 100.655 68.3724 99.7408C67.6788 98.3784 66.8716 97.0745 66.1068 95.7491C65.9166 95.3844 65.6443 95.0696 65.3117 94.8299C64.9791 94.5902 64.5953 94.4321 64.1912 94.3683C63.7723 94.2943 63.3791 93.9345 63.0264 93.6408C60.2522 91.3312 58.41 88.4652 58.0333 84.7971C57.9629 84.1117 58.2199 83.3945 58.3086 82.6897C58.4295 81.7291 58.5343 80.7665 58.645 79.8046C58.706 79.2751 58.4055 79.0093 57.9606 79.1711C57.1944 79.4498 56.3174 79.6907 55.7636 80.2336C54.6575 81.3474 53.9568 82.8043 53.7746 84.3688C53.7464 84.5744 53.9986 84.8529 54.178 85.0431C54.3549 85.1877 54.5506 85.3074 54.7596 85.399Z" fill="#EDCC9E"/>
<path d="M95.4435 50.86C95.6882 51.53 95.9679 52.1896 96.1671 52.873C96.3468 53.4895 96.4386 54.132 96.5691 54.7629C97.714 51.7095 99.1134 48.7438 99.4472 45.4244C99.529 44.611 100.063 43.8545 100.276 43.0417C101.164 39.6536 102.182 36.2855 102.795 32.8454C103.096 31.1547 102.618 29.3231 102.492 27.5553C102.365 27.6545 102.171 27.7276 102.122 27.8566C101.465 29.5821 100.645 31.2731 100.239 33.0588C99.8323 34.8486 99.8922 36.7412 99.6579 38.5771C99.4823 39.9602 99.2228 41.3312 98.881 42.6824C98.6947 43.2829 98.3786 43.8343 97.9556 44.2973C96.7199 45.7216 95.8758 47.4466 95.507 49.3011C95.4502 49.4844 95.3737 49.6609 95.2791 49.8277C95.1682 49.9876 95.1233 50.1847 95.154 50.3773C95.1847 50.5699 95.2885 50.743 95.4435 50.86Z" fill="#EDCC9E"/>
<path d="M61.1626 18.1547C62.0228 17.6866 62.8502 17.1364 63.7516 16.7713C64.8613 16.3217 66.0327 16.0264 67.1775 15.6644C67.5162 15.4259 67.442 15.0985 67.346 14.7832C67.1317 14.0977 66.7568 13.4741 66.2528 12.9651C65.5059 12.1792 64.6046 11.5584 63.6064 11.1424C63.29 11.0114 62.9635 10.8585 62.6257 11.0984C62.2583 12.25 61.7949 13.3813 61.5506 14.5588C61.3069 15.7334 61.2829 16.9542 61.1626 18.1547Z" fill="#DAB88A"/>
<path d="M62.6258 11.0982C63.6063 11.2812 64.5276 11.7023 65.3097 12.3252C66.0918 12.9481 66.711 13.7538 67.1137 14.6723C67.2432 14.9523 67.1616 15.3313 67.1776 15.6643C68.662 15.3957 70.148 15.136 71.6288 14.8489C71.8415 14.7709 72.0411 14.6606 72.2207 14.5217C71.7014 14.2281 71.1213 14.0071 70.6736 13.6277C68.9744 12.1878 67.2481 10.8107 65.0829 10.1317C64.0629 9.8119 63.2073 10.1435 62.6258 11.0982Z" fill="#EDCC9D"/>
<path d="M67.8323 27.0108C68.2591 24.2671 66.8408 22.2977 64.9906 20.6358C63.5577 19.3488 61.8645 19.3739 60.214 20.3823C59.9994 20.9873 59.7847 21.5923 59.5699 22.1973C59.5616 22.8155 59.6542 23.4309 59.8439 24.019C59.8665 24.1338 59.9115 24.2429 59.9762 24.3402C60.041 24.4374 60.1242 24.5207 60.2211 24.5854C60.5872 24.6444 60.6379 24.3388 60.7243 24.1108C61.1017 23.1379 61.6928 22.2636 62.4533 21.5533C63.3524 20.6888 64.1091 20.6879 65.0258 21.5806C66.3005 22.7181 66.5647 24.2338 66.6013 25.8339C66.6828 26.424 66.465 26.7914 65.8537 26.9012C65.6569 26.9133 65.4714 26.9976 65.3322 27.1381C65.2878 27.2341 65.2781 27.3427 65.3047 27.4451C65.3314 27.5476 65.3928 27.6374 65.4782 27.6991C66.294 27.578 67.1127 27.4661 67.8323 27.0108Z" fill="#ECCB9E"/>
<path d="M60.35 24.5682C60.1694 24.0123 59.9887 23.4565 59.8078 22.9007C59.7307 22.6654 59.6491 22.4315 59.5697 22.197C59.2196 23.5462 58.8608 24.8931 58.5252 26.246C58.461 26.5845 58.4176 26.9268 58.3952 27.2707C58.4799 27.2781 58.5646 27.2855 58.6493 27.2929C58.7594 27.3973 58.9021 27.46 59.053 27.4704C60.8446 27.5921 62.6171 27.915 64.3374 28.4332C64.5844 28.4192 64.823 28.3381 65.0278 28.1985C65.2327 28.059 65.3962 27.8661 65.501 27.6405L65.385 27.1649C65.2514 26.9984 65.0772 27.0717 64.9102 27.0768C64.0338 27.1385 63.1535 27.0426 62.3105 26.7936C61.3822 26.4825 60.6606 25.9762 60.5171 24.9079C60.5061 24.7775 60.4464 24.6561 60.35 24.5682Z" fill="#FEE4C1"/>
<path d="M88.5434 16.5919C88.5294 17.4536 89.021 17.3325 89.521 17.07C90.5672 16.5208 91.5603 15.8532 92.6409 15.3897C95.1925 14.3188 97.9849 13.9654 100.72 14.3671C100.849 14.3754 100.979 14.3746 101.107 14.3648C100.042 13.3173 98.6867 13.1947 97.3497 13.3818C94.43 13.7787 91.6307 14.8095 89.1456 16.4029C88.954 16.4923 88.7515 16.5559 88.5434 16.5919Z" fill="#FFF1DE"/>
<path d="M64.5359 28.3352C62.5738 27.9877 60.6117 27.6403 58.6496 27.293C58.1516 31.2776 58.8169 35.1093 60.3625 38.7619C60.8327 39.7578 61.5486 40.6157 62.4419 41.2536C64.9289 43.0896 67.4205 44.9703 70.1197 46.4451C71.8106 47.369 73.8649 47.6511 75.7818 48.1134C77.5675 48.544 79.3871 48.8319 81.1917 49.1827L81.2159 49.4309C80.4181 49.5618 79.6154 49.8265 78.8236 49.7968C76.9633 49.7271 75.0742 49.6893 73.2587 49.3251C70.0427 48.68 66.8759 47.7891 63.682 47.0288C62.6626 46.7861 61.6225 46.6312 60.592 46.4362C61.7285 47.2017 62.7854 48.1512 64.0191 48.6917C66.0827 49.6173 67.9661 50.9055 69.5811 52.4961C71.2927 54.0968 72.8267 55.8797 74.1564 57.8135C75.1426 59.3002 75.5771 61.1579 76.257 62.8506C76.5552 63.5439 76.8877 64.2247 77.1453 64.9331C78.0968 67.5498 78.3008 70.3134 78.7943 73.0248C79.1041 74.7269 80.2793 76.2833 81.1443 77.8616C81.4638 78.4446 82.0514 78.4959 82.6663 78.1391C84.941 76.8191 86.4354 74.8313 87.4965 72.4719C89.7944 67.3623 91.1429 61.942 92.6504 56.5708C93.1377 54.9424 93.7218 53.345 94.3993 51.7871C94.5601 51.3994 95.0853 51.165 95.4434 50.86C95.3889 50.5159 95.3341 50.1718 95.2792 49.8277C94.8466 47.989 94.3245 46.1659 94.0043 44.3076C93.6389 42.1253 92.8396 40.0398 91.6542 38.1761C91.3542 37.7549 91.0854 37.312 90.8498 36.8511C90.342 35.6503 89.5988 34.5649 88.6648 33.66C87.7308 32.755 86.625 32.0491 85.4137 31.5845C82.6516 30.4947 79.8494 29.4948 76.8204 29.5055C76.0922 29.508 75.3643 29.5973 74.6363 29.6467C74.5229 29.8081 74.4512 29.9954 74.4278 30.1917C74.3973 30.3544 74.413 30.5225 74.473 30.6766C74.892 31.2971 74.6882 31.8873 74.3377 32.4329C73.5757 33.6193 71.2345 34.5339 69.8653 34.2068C69.8059 34.1818 69.75 34.1493 69.6989 34.1099C69.2645 33.929 68.8143 34.149 68.3624 34.0357C67.5532 33.7968 66.8225 33.3435 66.2466 32.7233C65.4156 31.9153 64.6263 31.0494 64.4676 29.8124C64.4091 29.3171 64.5341 28.8289 64.5359 28.3352Z" fill="white"/>
<path d="M67.834 147.178C67.2504 144.787 66.7767 142.363 66.0572 140.014C65.0199 136.628 63.6557 133.34 62.7004 129.933C61.3651 125.171 61.2004 120.431 63.7836 115.912C64.2832 115.038 64.4845 113.969 64.7131 112.965C65.0729 111.384 63.9214 110.406 63.1227 109.308C61.8166 107.511 60.5334 105.694 59.1629 103.948C57.8999 102.338 56.4671 100.862 55.2295 99.2343C52.9925 96.292 51.814 92.9588 51.9068 89.2125C51.892 88.8532 51.852 88.4955 51.7871 88.142C51.0536 90.284 50.1939 92.3919 49.612 94.5749C48.2853 99.5515 48.5416 104.665 48.5369 109.751C48.5343 112.467 48.0746 115.068 46.8065 117.524C46.0217 119.042 45.3669 120.626 44.8491 122.257C43.7081 125.863 43.4857 129.48 45.2585 132.992C46.1505 134.724 47.6032 136.096 49.3758 136.882C51.8307 138.032 54.4387 138.87 56.8346 140.126C60.695 142.149 64.5976 144.149 67.834 147.178Z" fill="white"/>
<path d="M77.0298 99.2189C77.0689 98.3587 77.1079 97.4985 77.147 96.6384C75.8744 95.4039 75.9655 93.7227 75.7108 92.1589C75.5821 91.3687 75.499 90.5699 75.3626 89.7813C75.2486 89.0084 75.3297 88.2191 75.5984 87.4861C75.2332 85.5347 74.8843 83.58 74.4943 81.6336C74.3523 80.9249 74.2248 80.2894 75.1422 80.0288C75.1996 79.9899 75.2468 79.9374 75.2795 79.8761C75.3123 79.8147 75.3297 79.7462 75.3303 79.6765C75.2277 78.2391 75.5287 76.8313 74.9597 75.3488C74.4121 73.9221 74.482 72.2552 74.2803 70.6939C71.4245 70.2672 69.2186 71.5723 67.1687 73.3541C65.911 74.4473 64.7136 75.5599 64.0291 77.1422C63.6913 77.9229 63.7378 78.5853 64.4483 79.0174C65.1622 79.4516 65.675 78.9922 66.1318 78.419C67.4207 76.8017 68.728 75.1995 70.0537 73.6122C70.4499 73.1846 70.8814 72.7917 71.3437 72.4376C71.4768 72.336 71.636 72.2748 71.8025 72.2613C72.4981 72.196 73.1959 72.1544 73.9673 72.0988C73.5639 72.7319 73.1955 73.3869 72.8638 74.061C72.5409 74.7944 72.3738 75.596 72.0953 76.3515C71.9543 76.6105 71.7903 76.8561 71.6052 77.0852C71.3336 77.5357 70.8035 78.0367 70.8619 78.4471C71.2845 81.4145 71.8215 84.3656 72.3399 87.3187C72.4064 87.6977 72.6345 88.0518 72.6767 88.43C72.714 88.7645 72.5616 89.1158 72.5555 89.4608C72.5465 89.9688 72.439 90.5537 72.6428 90.9733C73.5469 92.8351 74.5688 94.6388 75.4847 96.4952C75.5984 96.7256 75.3792 97.1676 75.234 97.4729C74.9401 98.0907 74.7627 98.785 75.4051 99.1504C75.8253 99.3895 76.4801 99.2106 77.0298 99.2189Z" fill="#EDCC9D"/>
<path d="M21.6515 143.785C21.8584 141.612 22.0649 139.438 22.2709 137.265C22.2854 137.201 22.2799 137.134 22.255 137.073C21.9613 136.663 21.6587 136.259 21.3587 135.854C21.1892 136.274 20.8582 136.702 20.8778 137.113C20.9697 139.046 21.1573 140.974 21.3122 142.904C21.3345 143.182 21.3649 143.46 21.3916 143.738C21.4782 143.754 21.5649 143.77 21.6515 143.785Z" fill="#EDCC9E"/>
<path d="M46.7114 73.3625C48.0978 72.9823 50.4447 69.5329 50.2706 68.1312C48.7561 68.4734 46.4356 71.8842 46.7114 73.3625Z" fill="#EDCC9E"/>
<path d="M42.7613 77.2869C43.1771 76.6964 43.5959 76.1081 44.0078 75.5148C44.4374 74.8959 44.8366 74.2541 45.292 73.6554C45.5484 73.3221 45.7177 72.9295 45.7847 72.5133C45.8516 72.0972 45.8139 71.6708 45.6751 71.273C45.6247 71.0999 45.4142 70.8657 45.2683 70.8589C45.1684 70.8772 45.0743 70.9194 44.9939 70.9819C44.9135 71.0445 44.8492 71.1255 44.8064 71.2183C44.3153 72.472 43.8543 73.7377 43.3927 75.0029C43.1293 75.7252 42.8824 76.4535 42.6281 77.1791L42.7613 77.2869Z" fill="#EDCC9E"/>
<path d="M22.4093 145.736C23.1228 143.678 24.3407 141.766 24.2054 139.475C24.1559 139.263 24.0727 139.06 23.9589 138.875C23.8229 139.039 23.5994 139.186 23.5643 139.37C23.2031 141.262 22.8724 143.16 22.533 145.056C22.4924 145.283 22.4506 145.509 22.4093 145.736Z" fill="#EECD9F"/>
<path d="M41.4702 80.8005C41.764 79.0062 42.1306 76.801 42.4748 74.5922C42.4989 74.4373 42.3574 74.2562 42.2929 74.0873C42.1254 74.1907 41.8632 74.2582 41.8084 74.4044C41.6285 74.8209 41.5191 75.2647 41.4848 75.7175C41.4499 77.5456 41.4702 79.3747 41.4702 80.8005Z" fill="#EECD9F"/>
<path d="M39.8569 115.651C38.8734 116.091 38.2074 119.177 38.6573 120.613C39.0915 118.817 39.4742 117.234 39.8569 115.651Z" fill="#EECD9F"/>
<path d="M41.0032 118.109C41.4359 117.355 41.8686 116.601 42.3013 115.847L41.9823 115.667C41.5761 116.429 41.17 117.191 40.7638 117.953L41.0032 118.109Z" fill="#EECD9F"/>
<path d="M97.9786 15.9946C96.6582 16.342 95.3323 16.6696 94.0195 17.0439C93.1728 17.2854 92.3506 17.613 91.5077 17.8694C90.7324 18.1051 90.458 18.6244 90.8855 19.3195C91.3216 20.0869 91.8406 20.8033 92.4333 21.4556C93.8059 22.858 95.28 24.1591 96.6788 25.5364C97.3061 26.1539 97.6626 25.8736 98.0186 25.2782C99.1961 23.3573 100.018 21.2375 100.446 19.0214C100.543 18.6234 100.577 18.2124 100.548 17.8035C100.351 16.3728 100.051 16.1996 97.9786 15.9946Z" fill="#EDCB9C"/>
<path d="M74.6076 30.663L74.6004 30.1474C73.6171 28.6393 72.0825 27.9929 70.4651 27.4937C69.8096 27.2998 69.1397 27.1587 68.462 27.0717L67.8324 27.0107L65.5011 27.6407C65.1793 27.8722 64.8575 28.1037 64.5356 28.3353C64.4752 28.8088 64.4148 29.2824 64.3543 29.756C64.8199 30.7878 65.5076 31.7024 66.3676 32.4335C67.2276 33.1646 68.2384 33.6939 69.3266 33.983C69.4952 34.0216 69.6576 34.0836 69.8091 34.1674C69.8477 34.1874 69.8907 34.1976 69.9342 34.197C71.8353 33.8217 73.4404 32.969 74.5244 31.2886C74.5816 31.1962 74.6186 31.0927 74.6329 30.9848C74.6473 30.8769 74.6386 30.7672 74.6076 30.663Z" fill="#37103B"/>
<path d="M77.2649 27.2973C78.9596 28.4323 80.7151 29.4623 82.8372 29.3342C83.6249 29.2866 84.3941 28.9281 85.1718 28.7113C86.7668 28.0924 87.8427 26.8673 88.8098 25.5253C88.9108 25.3805 88.9629 25.2068 88.9582 25.03C88.9536 24.8531 88.8925 24.6824 88.784 24.5432C88.2247 23.7641 87.4284 23.1899 86.5158 22.9074C86.4554 22.8819 86.3884 22.8769 86.3249 22.8931C86.2614 22.9094 86.2049 22.946 86.1639 22.9975C86.1253 23.1114 86.1168 23.2335 86.1391 23.3517C86.1614 23.47 86.2138 23.5804 86.2911 23.6722C86.8651 24.5693 86.7021 25.4723 86.2697 26.3374C85.7175 27.3984 84.7699 28.1956 83.6347 28.5539C82.4995 28.9122 81.2695 28.8024 80.2146 28.2486C79.2568 27.7379 78.5692 26.3926 78.6678 25.2273C78.6911 24.952 78.8037 24.6701 78.619 24.4054C78.379 24.249 78.2038 24.3863 78.0604 24.5527C77.5887 25.0852 77.1867 25.6763 76.8641 26.3115C76.6651 26.7159 76.7039 27.0665 77.1596 27.2776L77.153 27.2726C77.1647 27.2906 77.183 27.3034 77.2039 27.308C77.2248 27.3126 77.2467 27.3088 77.2649 27.2973Z" fill="#FBF9F8"/>
<path d="M86.1297 22.9824C86.959 23.4511 87.7584 23.9713 88.5235 24.5401C88.7032 24.687 88.6547 25.4743 88.4379 25.6952C87.4007 26.7519 86.2696 27.7152 85.1718 28.7116C87.0759 28.6988 89.2068 27.1214 89.6548 25.3213C89.6671 25.1544 89.646 24.9867 89.5928 24.8281C89.5396 24.6695 89.4554 24.5233 89.345 24.3981C87.3032 21.954 82.3077 20.7946 79.2032 23.0277C78.1642 23.7751 77.0909 24.4447 76.5309 25.6684C76.1692 26.4589 76.4177 27.1081 77.1596 27.2779C77.1541 26.9144 77.0092 26.4624 77.1706 26.2049C77.612 25.5734 78.0927 24.9708 78.61 24.4007C78.7558 24.4295 78.8521 24.3385 78.9505 24.2559C80.8724 22.6416 83.0168 22.1036 85.4388 22.8877C85.6539 22.9901 85.8952 23.0232 86.1297 22.9824Z" fill="#ECCB9E"/>
<path d="M68.4617 27.0714C68.893 27.2152 69.3178 27.3844 69.7568 27.4982C71.4977 27.9499 73.1586 28.5353 74.3133 30.0494C74.3644 30.1164 74.5026 30.1161 74.6002 30.1471C74.612 29.9802 74.6239 29.8132 74.6357 29.6464C73.7211 28.0669 72.085 27.7313 70.5347 27.2976C69.8739 27.1128 69.1545 27.1404 68.4617 27.0714Z" fill="#6F486F"/>
<path d="M77.2646 27.2974C77.2282 27.2852 77.1906 27.2769 77.1524 27.2727C77.1898 27.2809 77.2272 27.2891 77.2646 27.2974Z" fill="#ECCB9E"/>
<path d="M75.5984 87.4861C74.8471 88.3685 75.0982 89.3825 75.2355 90.3753C75.4364 91.8295 75.6438 93.2829 75.8702 94.7333C75.9991 95.5589 76.3496 96.256 77.1471 96.6381C77.1923 95.5842 77.265 94.53 77.2611 93.476C77.2441 93.3392 77.196 93.2081 77.1205 93.0931C77.045 92.978 76.9442 92.8821 76.8258 92.8127C75.9849 92.4299 75.7901 91.7033 75.739 90.9072C75.6658 89.7685 75.6428 88.6266 75.5984 87.4861Z" fill="#FEFCFA"/>
<path d="M66.7788 25.7951C66.7673 24.1343 66.4864 22.578 65.1151 21.4444C65.0293 21.3611 64.9228 21.3025 64.8067 21.2747C64.6907 21.247 64.5694 21.2511 64.4555 21.2867C63.3583 21.5179 62.4422 22.0659 62.0667 23.159C61.6884 24.26 61.7905 25.3494 62.6914 26.2308C63.0694 26.6241 63.554 26.8967 64.0847 27.0146C64.6154 27.1325 65.1689 27.0905 65.6761 26.8939C65.9391 26.8234 66.1792 26.685 66.3726 26.4922C66.5661 26.2994 66.7061 26.0591 66.7788 25.7951Z" fill="#39123C"/>
<path d="M66.779 25.7951C66.4439 26.2626 65.9646 26.6054 65.4158 26.77C64.867 26.9346 64.2795 26.9118 63.745 26.705C63.3253 26.5882 62.9492 26.3494 62.6636 26.0185C62.378 25.6875 62.1957 25.2792 62.1393 24.8444C61.8729 22.7492 62.9678 21.5361 65.1153 21.4444C64.2738 20.4898 63.2385 20.356 62.4702 21.3036C61.6582 22.3051 61.0482 23.4728 60.3502 24.5681C60.3079 25.7351 60.7714 26.5822 61.9257 26.846C63.0451 27.1019 64.2294 27.0702 65.3853 27.1649C66.2086 27.0783 67.0309 26.9907 66.779 25.7951Z" fill="#FCFAF9"/>
<path d="M74.6077 30.663C73.6947 32.7889 71.8434 33.5837 69.7967 34.1014C69.704 34.0802 69.6571 34.123 69.6434 34.2123C70.1629 34.2877 70.7622 34.567 71.1861 34.3985C72.2902 33.9751 73.3405 33.4212 74.3148 32.7483C74.6272 32.5101 74.8333 32.1571 74.8882 31.7664C74.9431 31.3757 74.8423 30.9791 74.6077 30.663Z" fill="#E7E6E7"/>
<path d="M69.6436 34.2122L69.7969 34.1013C69.0806 33.7705 68.3539 33.4606 67.6503 33.1044C66.4196 32.4814 65.5587 31.4759 64.8609 30.3043C64.7119 30.1039 64.5422 29.9201 64.3546 29.7559C64.3646 30.0029 64.4056 30.2476 64.4766 30.4842C65.2006 32.118 66.4973 33.4256 68.1188 34.1569C68.5419 34.3574 69.1309 34.2034 69.6436 34.2122Z" fill="#2D0931"/>
<path d="M68.2379 36.6391C69.8819 37.1857 71.5523 37.6383 73.2978 37.3898C74.1868 37.247 75.0457 36.9552 75.8389 36.5266C73.2783 37.3931 70.7486 36.8947 68.2191 36.5098C68.2098 36.5185 68.2028 36.5295 68.1986 36.5416C68.1944 36.5537 68.1931 36.5667 68.195 36.5794C68.1968 36.5921 68.2017 36.6041 68.2091 36.6145C68.2166 36.6249 68.2265 36.6334 68.2379 36.6391Z" fill="#48244C"/>
<path d="M68.2378 36.6386L68.2191 36.5093L66.8697 36.1082L66.8374 36.2212L68.2378 36.6386Z" fill="#99889B"/>
<path d="M86.1293 22.9821C83.9889 21.6969 79.7595 22.4947 78.6095 24.4006C77.8559 27.6956 80.507 29.419 83.2412 28.8544C85.0525 28.4804 86.1697 27.3847 86.7381 25.659C87.072 24.6454 86.6631 23.7982 86.1293 22.9821Z" fill="#38113C"/>
<path d="M65.4664 23.5268C65.6146 23.2732 65.7825 23.1086 65.7498 23.0151C65.6912 22.8476 65.5118 22.7228 65.383 22.5802C65.2914 22.6961 65.1127 22.8255 65.1278 22.925C65.2087 23.1422 65.3229 23.3453 65.4664 23.5268Z" fill="#E7E6E7"/>
<path d="M63.8936 23.6998C63.8383 23.7657 63.7936 23.8399 63.7613 23.9197C63.7557 23.9503 63.8371 24.0317 63.8713 24.0274C63.9363 24.0064 63.9969 23.9733 64.0498 23.9299L63.8936 23.6998Z" fill="#99889B"/>
<path d="M84.4941 24.1407C84.7921 24.3105 84.9536 24.4605 85.129 24.4793C85.2249 24.4897 85.3443 24.2781 85.4531 24.1665C85.3139 24.0338 85.1919 23.8345 85.0292 23.7918C84.9218 23.7636 84.7561 23.9604 84.4941 24.1407Z" fill="#E7E6E7"/>
<path d="M69.1986 109.204C69.1947 109.647 69.1909 110.091 69.187 110.534C69.2329 111.574 69.0722 112.613 68.7141 113.59C68.3561 114.567 67.808 115.462 67.1019 116.223C66.493 116.895 65.9522 117.626 65.4876 118.406C65.0715 119.081 64.8219 119.845 64.7598 120.637C64.6976 121.428 64.8248 122.223 65.1306 122.955C65.3415 123.5 65.609 124.019 65.8281 124.561C65.8513 124.656 65.8967 124.744 65.9608 124.817C66.0248 124.891 66.1055 124.948 66.196 124.983C67.0418 125.107 67.816 124.829 68.5661 124.506C69.8045 123.953 70.9597 123.229 71.9979 122.353C74.4139 120.374 76.228 117.894 77.8319 115.244C78.5152 114.115 79.2234 113.013 80.185 112.099C80.8028 110.281 81.1873 108.391 81.3293 106.476C81.3716 105.688 81.274 104.884 81.2572 104.087C81.2689 103.99 81.254 103.891 81.2141 103.802C81.1742 103.713 81.1109 103.637 81.031 103.581C80.5243 103.626 80.5813 104.005 80.5852 104.351C80.5948 104.406 80.6185 104.457 80.654 104.5C80.5831 104.47 80.5841 104.404 80.5734 104.342C80.1146 101.91 79.2728 99.5675 78.08 97.403C77.2498 95.8354 76.1557 94.4097 75.5027 92.7473C74.4099 89.965 73.6212 87.1121 73.7569 84.075C73.8653 82.6467 74.1018 81.2313 74.4634 79.8459C75.1226 76.9472 75.7139 74.0361 76.1256 71.0901C76.2423 70.2547 76.459 69.4723 77.1984 68.9552C77.2517 68.1998 77.172 67.4408 76.9631 66.7133C76.6488 65.7472 75.6792 64.8001 74.4958 64.9124C73.7288 64.9852 72.9483 64.9337 72.1864 65.0343C70.8986 65.2043 69.7076 65.723 68.5245 66.2345C66.6374 67.0757 64.8329 68.0933 63.1345 69.2738C61.2512 70.5686 59.5281 72.085 58.0016 73.7909C56.7569 75.1687 55.7061 76.7122 54.8788 78.3781C54.1311 79.8178 53.6379 81.3776 53.4211 82.9876C53.3758 83.7011 53.3752 84.4168 53.4192 85.1304C53.794 85.2254 53.7794 84.9108 53.8313 84.7065C53.9969 84.0546 54.1881 83.4104 54.3691 82.7631C54.9563 80.6636 56.1395 78.8677 57.242 77.0307C57.2793 76.9521 57.3362 76.8847 57.4073 76.8351C57.4442 76.9196 57.394 76.9948 57.3816 77.0739C56.9811 79.3369 56.8027 81.634 56.8489 83.9321C56.8662 84.2136 56.9054 84.4934 56.9661 84.7687C57.393 86.9392 57.9006 89.0946 58.2318 91.283C58.6075 93.765 59.6666 95.9137 61.067 97.9778C62.3925 99.9314 64.032 101.578 65.5947 103.307C66.5809 104.368 67.4895 105.5 68.3134 106.694C68.8109 107.436 69.2832 108.233 69.1986 109.204Z" fill="#FFE4C0"/>
<path d="M80.9518 103.622C81.0098 103.708 81.0525 103.803 81.078 103.904C81.1271 104.724 81.2145 105.546 81.1877 106.363C81.1486 107.052 81.052 107.736 80.899 108.408C80.6712 109.528 80.3962 110.639 80.1508 111.755C80.1445 111.871 80.1561 111.987 80.1853 112.099C81.5592 111.168 82.9448 110.254 84.3037 109.302C85.7141 108.313 86.4863 106.887 86.8977 105.245C87.1362 104.372 87.2731 103.474 87.3057 102.569C87.3185 101.771 87.3847 100.974 87.4278 100.176C87.7112 94.9307 87.4999 89.6808 87.556 84.4332C87.567 84.2599 87.564 84.086 87.5471 83.9132C87.5297 83.7995 87.4588 83.61 87.397 83.6037C87.2368 83.5882 87.0759 83.6244 86.9375 83.7072C86.8248 83.8083 86.7355 83.9331 86.676 84.0728C85.211 86.6208 83.7764 89.1873 82.2706 91.7106C81.6862 92.6899 80.9402 93.5713 80.2706 94.4994C79.803 95.1475 79.3401 95.799 78.8751 96.449C78.7973 96.5673 78.7581 96.7071 78.763 96.8489C78.7678 96.9907 78.8165 97.1275 78.9022 97.2401C79.4094 98.1912 79.7158 99.237 80.2694 100.165C80.3651 100.38 80.4165 100.612 80.4206 100.848C80.5645 101.779 80.6309 102.725 80.9518 103.622Z" fill="#EDCB9D"/>
<path d="M69.1987 109.204C69.2404 108.96 69.2552 108.712 69.2428 108.465C69.0753 107.403 68.4846 106.553 67.8421 105.73C66.3423 103.834 64.729 102.032 63.0111 100.334C62.7596 100.067 62.5328 99.7783 62.3336 99.4702C61.6512 98.473 60.9913 97.4601 60.3042 96.4662C59.4877 95.2674 58.9334 93.9077 58.6778 92.4771C58.1623 89.7896 57.6053 87.1102 57.0682 84.4269C57.0355 84.2793 57.0193 84.1285 57.0201 83.9773C57.0589 82.5933 57.0563 81.2058 57.1639 79.8271C57.2424 78.8227 57.4691 77.8302 57.6288 76.8322C57.6485 76.748 57.657 76.6615 57.6542 76.575C57.6361 76.5024 57.6079 76.4327 57.5705 76.3679C57.5226 76.4054 57.4593 76.4331 57.4293 76.4817C56.8525 77.4179 56.278 78.3557 55.706 79.2949C54.6464 81.0333 54.0593 82.9476 53.6321 84.9229C53.6146 85.0038 53.4923 85.0616 53.4191 85.1302C53.3538 85.883 53.4356 86.6414 53.6596 87.3626C53.8751 88.2708 54.1558 89.162 54.4994 90.0292C54.8649 90.85 55.2758 91.6497 55.73 92.4243C56.2757 93.3759 56.869 94.299 57.5077 95.1901C58.3075 96.2816 59.1493 97.3479 60.0446 98.361C61.2724 99.7505 62.5503 101.097 63.8396 102.429C64.7692 103.39 65.7579 104.293 66.7099 105.232C67.4644 105.999 68.125 106.853 68.6775 107.778C68.9377 108.199 69.0302 108.725 69.1987 109.204Z" fill="#EDCC9D"/>
<path d="M80.9517 103.622C80.8582 102.877 80.7621 102.133 80.6726 101.388C80.6398 101.115 80.6288 100.838 80.5953 100.565C80.5819 100.444 80.5497 100.326 80.4999 100.216C79.9963 99.1472 79.481 98.084 78.985 97.0117C78.9258 96.8293 78.8889 96.6403 78.875 96.4489C78.5641 96.5069 78.4506 96.2882 78.3683 96.0595C78.0298 95.2201 77.7336 94.3641 77.4807 93.4947C77.0895 91.9299 76.7502 90.3523 76.4626 88.7618C76.2908 87.8115 76.2559 86.8357 76.1682 85.8705C76.0785 84.884 75.9553 83.8978 75.9285 82.9092C75.9034 81.9832 75.9861 81.0543 76.0199 80.1267C76.0286 79.8885 76.0174 79.6487 76.0399 79.4121C76.1558 78.1912 76.2671 76.9696 76.4046 75.7511C76.5252 74.6819 76.6744 73.6159 76.8183 72.5495C76.9333 71.6972 77.0712 70.8479 77.1746 69.9943C77.2004 69.6486 77.2084 69.3017 77.1986 68.9552C76.3709 69.0987 76.1918 69.7831 76.0647 70.4378C75.8436 71.5777 75.7163 72.7357 75.5129 73.8795C75.3017 75.0664 75.0575 76.2477 74.8085 77.4274C74.4616 79.0713 74.0332 80.7008 73.7592 82.3566C73.5295 83.7652 73.503 85.1999 73.6805 86.6162C73.9228 88.6066 74.5047 90.4961 75.1444 92.3755C75.5734 93.5085 76.1338 94.5865 76.8139 95.5872C78.0407 97.4953 79.0143 99.5568 79.71 101.719C79.9876 102.604 80.3369 103.464 80.4616 104.392C80.4744 104.487 80.5646 104.571 80.6188 104.66C80.6554 104.574 80.6804 104.483 80.6932 104.391C80.6737 104.251 80.6869 104.109 80.7318 103.975C80.7767 103.842 80.852 103.721 80.9517 103.622Z" fill="#FFF1DE"/>
<path d="M66.1962 124.983C65.8683 124.23 65.5007 123.492 65.2211 122.721C64.9403 122.025 64.8349 121.27 64.9144 120.523C64.9939 119.776 65.2559 119.06 65.6769 118.44C66.3081 117.493 67.034 116.608 67.7278 115.704C68.8527 114.313 69.4144 112.545 69.3005 110.755C69.2955 110.679 69.2264 110.608 69.1871 110.534C69.0685 111.089 68.8594 111.621 68.5683 112.107C67.767 113.538 66.7497 114.819 65.8574 116.186C65.3832 116.881 64.9658 117.613 64.6092 118.376C64.2698 119.144 63.9228 119.966 63.8616 120.785C63.7692 121.567 63.7968 122.358 63.9435 123.132C64.0554 123.628 64.3151 124.079 64.688 124.423C65.061 124.767 65.5293 124.988 66.0304 125.056C66.0814 125.063 66.1407 125.009 66.1962 124.983Z" fill="#EECC9E"/>
<defs>
<filter id="filter0_d_377_8175" x="202.637" y="28.7213" width="68.5574" height="68.5574" filterUnits="userSpaceOnUse" color-interpolation-filters="sRGB">
<feFlood flood-opacity="0" result="BackgroundImageFix"/>
<feColorMatrix in="SourceAlpha" type="matrix" values="0 0 0 0 0 0 0 0 0 0 0 0 0 0 0 0 0 0 127 0" result="hardAlpha"/>
<feOffset/>
<feGaussianBlur stdDeviation="12.1394"/>
<feComposite in2="hardAlpha" operator="out"/>
<feColorMatrix type="matrix" values="0 0 0 0 1 0 0 0 0 0.764706 0 0 0 0 0.0784314 0 0 0 0.57 0"/>
<feBlend mode="normal" in2="BackgroundImageFix" result="effect1_dropShadow_377_8175"/>
<feBlend mode="normal" in="SourceGraphic" in2="effect1_dropShadow_377_8175" result="shape"/>
</filter>
<filter id="filter1_d_377_8175" x="188.637" y="54.7213" width="61.5574" height="61.5574" filterUnits="userSpaceOnUse" color-interpolation-filters="sRGB">
<feFlood flood-opacity="0" result="BackgroundImageFix"/>
<feColorMatrix in="SourceAlpha" type="matrix" values="0 0 0 0 0 0 0 0 0 0 0 0 0 0 0 0 0 0 127 0" result="hardAlpha"/>
<feOffset/>
<feGaussianBlur stdDeviation="12.1394"/>
<feComposite in2="hardAlpha" operator="out"/>
<feColorMatrix type="matrix" values="0 0 0 0 1 0 0 0 0 0.764706 0 0 0 0 0.0784314 0 0 0 0.57 0"/>
<feBlend mode="normal" in2="BackgroundImageFix" result="effect1_dropShadow_377_8175"/>
<feBlend mode="normal" in="SourceGraphic" in2="effect1_dropShadow_377_8175" result="shape"/>
</filter>
<filter id="filter2_d_377_8175" x="-23.7106" y="47.4686" width="46.325" height="46.325" filterUnits="userSpaceOnUse" color-interpolation-filters="sRGB">
<feFlood flood-opacity="0" result="BackgroundImageFix"/>
<feColorMatrix in="SourceAlpha" type="matrix" values="0 0 0 0 0 0 0 0 0 0 0 0 0 0 0 0 0 0 127 0" result="hardAlpha"/>
<feOffset/>
<feGaussianBlur stdDeviation="7.17025"/>
<feComposite in2="hardAlpha" operator="out"/>
<feColorMatrix type="matrix" values="0 0 0 0 1 0 0 0 0 0.764706 0 0 0 0 0.0784314 0 0 0 0.57 0"/>
<feBlend mode="normal" in2="BackgroundImageFix" result="effect1_dropShadow_377_8175"/>
<feBlend mode="normal" in="SourceGraphic" in2="effect1_dropShadow_377_8175" result="shape"/>
</filter>
<filter id="filter3_d_377_8175" x="-1.83317" y="69.4406" width="39.2674" height="39.2674" filterUnits="userSpaceOnUse" color-interpolation-filters="sRGB">
<feFlood flood-opacity="0" result="BackgroundImageFix"/>
<feColorMatrix in="SourceAlpha" type="matrix" values="0 0 0 0 0 0 0 0 0 0 0 0 0 0 0 0 0 0 127 0" result="hardAlpha"/>
<feOffset/>
<feGaussianBlur stdDeviation="7.17025"/>
<feComposite in2="hardAlpha" operator="out"/>
<feColorMatrix type="matrix" values="0 0 0 0 1 0 0 0 0 0.764706 0 0 0 0 0.0784314 0 0 0 0.57 0"/>
<feBlend mode="normal" in2="BackgroundImageFix" result="effect1_dropShadow_377_8175"/>
<feBlend mode="normal" in="SourceGraphic" in2="effect1_dropShadow_377_8175" result="shape"/>
</filter>
<filter id="filter4_d_377_8175" x="66.2371" y="68.4196" width="38.0911" height="38.0911" filterUnits="userSpaceOnUse" color-interpolation-filters="sRGB">
<feFlood flood-opacity="0" result="BackgroundImageFix"/>
<feColorMatrix in="SourceAlpha" type="matrix" values="0 0 0 0 0 0 0 0 0 0 0 0 0 0 0 0 0 0 127 0" result="hardAlpha"/>
<feOffset/>
<feGaussianBlur stdDeviation="7.17025"/>
<feComposite in2="hardAlpha" operator="out"/>
<feColorMatrix type="matrix" values="0 0 0 0 1 0 0 0 0 0.764706 0 0 0 0 0.0784314 0 0 0 0.57 0"/>
<feBlend mode="normal" in2="BackgroundImageFix" result="effect1_dropShadow_377_8175"/>
<feBlend mode="normal" in="SourceGraphic" in2="effect1_dropShadow_377_8175" result="shape"/>
</filter>
<filter id="filter5_d_377_8175" x="82.6815" y="61.6318" width="35.7386" height="35.7386" filterUnits="userSpaceOnUse" color-interpolation-filters="sRGB">
<feFlood flood-opacity="0" result="BackgroundImageFix"/>
<feColorMatrix in="SourceAlpha" type="matrix" values="0 0 0 0 0 0 0 0 0 0 0 0 0 0 0 0 0 0 127 0" result="hardAlpha"/>
<feOffset/>
<feGaussianBlur stdDeviation="7.17025"/>
<feComposite in2="hardAlpha" operator="out"/>
<feColorMatrix type="matrix" values="0 0 0 0 1 0 0 0 0 0.764706 0 0 0 0 0.0784314 0 0 0 0.57 0"/>
<feBlend mode="normal" in2="BackgroundImageFix" result="effect1_dropShadow_377_8175"/>
<feBlend mode="normal" in="SourceGraphic" in2="effect1_dropShadow_377_8175" result="shape"/>
</filter>
</defs>
</svg>
